  0
SECTION
  2
HEADER
  9
$ACADVER
  1
AC1009
  9
$FILLMODE
 70
 0
  9
$SPLFRAME
 70
 1
  9
$EXTMIN
 10
0
 20
0
 30
0.0
  9
$EXTMAX
 10
1058.33
 20
1058.33
 30
0.0
  0
ENDSEC
  0
SECTION
  2
TABLES
  0
TABLE
  2
LAYER
 70
1
  0
LAYER
  2
0
 70
     0
 62
     7
  6
CONTINUOUS
  0
ENDTAB
  0
ENDSEC
  0
SECTION
  2
ENTITIES
  0
LINE
  8
0
 62
     0
 10
0.0950846
 20
124.083
 30
0.0
 11
362.045
 21
124.083
 31
0.0
  0
LINE
  8
0
 62
     0
 10
362.045
 20
124.083
 30
0.0
 11
362.045
 21
0.257693
 31
0.0
  0
LINE
  8
0
 62
     0
 10
362.045
 20
0.257693
 30
0.0
 11
0.0950846
 21
0.257693
 31
0.0
  0
LINE
  8
0
 62
     0
 10
0.0950846
 20
0.257693
 30
0.0
 11
0.0950846
 21
124.083
 31
0.0
  0
LINE
  8
0
 62
     0
 10
14.5259
 20
16.7831
 30
0.0
 11
14.5259
 21
12.0826
 31
0.0
  0
LINE
  8
0
 62
     0
 10
14.5259
 20
12.0826
 30
0.0
 11
13.0004
 21
12.0826
 31
0.0
  0
LINE
  8
0
 62
     0
 10
13.0004
 20
12.0826
 30
0.0
 11
13.0004
 21
15.3128
 31
0.0
  0
LINE
  8
0
 62
     0
 10
13.0004
 20
15.3128
 30
0.0
 11
6.2508
 21
15.3128
 31
0.0
  0
LINE
  8
0
 62
     0
 10
6.2508
 20
15.3128
 30
0.0
 11
6.2508
 21
12.0826
 31
0.0
  0
LINE
  8
0
 62
     0
 10
6.2508
 20
12.0826
 30
0.0
 11
5.42533
 21
12.0826
 31
0.0
  0
LINE
  8
0
 62
     0
 10
5.42533
 20
12.0826
 30
0.0
 11
5.42533
 21
9.28384
 31
0.0
  0
LINE
  8
0
 62
     0
 10
5.42533
 20
9.28384
 30
0.0
 11
6.2508
 21
9.28384
 31
0.0
  0
LINE
  8
0
 62
     0
 10
6.2508
 20
9.28384
 30
0.0
 11
6.2508
 21
3.01377
 31
0.0
  0
LINE
  8
0
 62
     0
 10
6.2508
 20
3.01377
 30
0.0
 11
7.97609
 21
3.01377
 31
0.0
  0
LINE
  8
0
 62
     0
 10
7.97609
 20
3.01377
 30
0.0
 11
7.97609
 21
1.8135
 31
0.0
  0
LINE
  8
0
 62
     0
 10
7.97609
 20
1.8135
 30
0.0
 11
11.2751
 21
1.8135
 31
0.0
  0
LINE
  8
0
 62
     0
 10
11.2751
 20
1.8135
 30
0.0
 11
11.2751
 21
3.01377
 31
0.0
  0
LINE
  8
0
 62
     0
 10
11.2751
 20
3.01377
 30
0.0
 11
13.0004
 21
3.01377
 31
0.0
  0
LINE
  8
0
 62
     0
 10
13.0004
 20
3.01377
 30
0.0
 11
13.0004
 21
7.48273
 31
0.0
  0
LINE
  8
0
 62
     0
 10
13.0004
 20
7.48273
 30
0.0
 11
14.5259
 21
7.48273
 31
0.0
  0
LINE
  8
0
 62
     0
 10
14.5259
 20
7.48273
 30
0.0
 11
14.5259
 21
2.78364
 31
0.0
  0
LINE
  8
0
 62
     0
 10
14.5259
 20
2.78364
 30
0.0
 11
28.5254
 21
2.78364
 31
0.0
  0
LINE
  8
0
 62
     0
 10
28.5254
 20
2.78364
 30
0.0
 11
28.5254
 21
7.48273
 31
0.0
  0
LINE
  8
0
 62
     0
 10
28.5254
 20
7.48273
 30
0.0
 11
30.0509
 21
7.48273
 31
0.0
  0
LINE
  8
0
 62
     0
 10
30.0509
 20
7.48273
 30
0.0
 11
30.0509
 21
3.01377
 31
0.0
  0
LINE
  8
0
 62
     0
 10
30.0509
 20
3.01377
 30
0.0
 11
31.7748
 21
3.01377
 31
0.0
  0
LINE
  8
0
 62
     0
 10
31.7748
 20
3.01377
 30
0.0
 11
31.7748
 21
1.8135
 31
0.0
  0
LINE
  8
0
 62
     0
 10
31.7748
 20
1.8135
 30
0.0
 11
35.0752
 21
1.8135
 31
0.0
  0
LINE
  8
0
 62
     0
 10
35.0752
 20
1.8135
 30
0.0
 11
35.0752
 21
3.01377
 31
0.0
  0
LINE
  8
0
 62
     0
 10
35.0752
 20
3.01377
 30
0.0
 11
36.8004
 21
3.01377
 31
0.0
  0
LINE
  8
0
 62
     0
 10
36.8004
 20
3.01377
 30
0.0
 11
36.8004
 21
9.28384
 31
0.0
  0
LINE
  8
0
 62
     0
 10
36.8004
 20
9.28384
 30
0.0
 11
37.6259
 21
9.28384
 31
0.0
  0
LINE
  8
0
 62
     0
 10
37.6259
 20
9.28384
 30
0.0
 11
37.6259
 21
12.0826
 31
0.0
  0
LINE
  8
0
 62
     0
 10
37.6259
 20
12.0826
 30
0.0
 11
36.8004
 21
12.0826
 31
0.0
  0
LINE
  8
0
 62
     0
 10
36.8004
 20
12.0826
 30
0.0
 11
36.8004
 21
15.3128
 31
0.0
  0
LINE
  8
0
 62
     0
 10
36.8004
 20
15.3128
 30
0.0
 11
30.0509
 21
15.3128
 31
0.0
  0
LINE
  8
0
 62
     0
 10
30.0509
 20
15.3128
 30
0.0
 11
30.0509
 21
12.0826
 31
0.0
  0
LINE
  8
0
 62
     0
 10
30.0509
 20
12.0826
 30
0.0
 11
28.5254
 21
12.0826
 31
0.0
  0
LINE
  8
0
 62
     0
 10
28.5254
 20
12.0826
 30
0.0
 11
28.5254
 21
16.7831
 31
0.0
  0
LINE
  8
0
 62
     0
 10
28.5254
 20
16.7831
 30
0.0
 11
14.5259
 21
16.7831
 31
0.0
  0
LINE
  8
0
 62
     0
 10
240.745
 20
16.7831
 30
0.0
 11
240.745
 21
12.0826
 31
0.0
  0
LINE
  8
0
 62
     0
 10
240.745
 20
12.0826
 30
0.0
 11
239.219
 21
12.0826
 31
0.0
  0
LINE
  8
0
 62
     0
 10
239.219
 20
12.0826
 30
0.0
 11
239.219
 21
15.3128
 31
0.0
  0
LINE
  8
0
 62
     0
 10
239.219
 20
15.3128
 30
0.0
 11
232.47
 21
15.3128
 31
0.0
  0
LINE
  8
0
 62
     0
 10
232.47
 20
15.3128
 30
0.0
 11
232.47
 21
12.0826
 31
0.0
  0
LINE
  8
0
 62
     0
 10
232.47
 20
12.0826
 30
0.0
 11
231.644
 21
12.0826
 31
0.0
  0
LINE
  8
0
 62
     0
 10
231.644
 20
12.0826
 30
0.0
 11
231.644
 21
9.28384
 31
0.0
  0
LINE
  8
0
 62
     0
 10
231.644
 20
9.28384
 30
0.0
 11
232.47
 21
9.28384
 31
0.0
  0
LINE
  8
0
 62
     0
 10
232.47
 20
9.28384
 30
0.0
 11
232.47
 21
3.01377
 31
0.0
  0
LINE
  8
0
 62
     0
 10
232.47
 20
3.01377
 30
0.0
 11
234.195
 21
3.01377
 31
0.0
  0
LINE
  8
0
 62
     0
 10
234.195
 20
3.01377
 30
0.0
 11
234.195
 21
1.8135
 31
0.0
  0
LINE
  8
0
 62
     0
 10
234.195
 20
1.8135
 30
0.0
 11
237.494
 21
1.8135
 31
0.0
  0
LINE
  8
0
 62
     0
 10
237.494
 20
1.8135
 30
0.0
 11
237.494
 21
3.01377
 31
0.0
  0
LINE
  8
0
 62
     0
 10
237.494
 20
3.01377
 30
0.0
 11
239.219
 21
3.01377
 31
0.0
  0
LINE
  8
0
 62
     0
 10
239.219
 20
3.01377
 30
0.0
 11
239.219
 21
7.48273
 31
0.0
  0
LINE
  8
0
 62
     0
 10
239.219
 20
7.48273
 30
0.0
 11
240.745
 21
7.48273
 31
0.0
  0
LINE
  8
0
 62
     0
 10
240.745
 20
7.48273
 30
0.0
 11
240.745
 21
2.78364
 31
0.0
  0
LINE
  8
0
 62
     0
 10
240.745
 20
2.78364
 30
0.0
 11
254.744
 21
2.78364
 31
0.0
  0
LINE
  8
0
 62
     0
 10
254.744
 20
2.78364
 30
0.0
 11
254.744
 21
7.48273
 31
0.0
  0
LINE
  8
0
 62
     0
 10
254.744
 20
7.48273
 30
0.0
 11
256.27
 21
7.48273
 31
0.0
  0
LINE
  8
0
 62
     0
 10
256.27
 20
7.48273
 30
0.0
 11
256.27
 21
3.01377
 31
0.0
  0
LINE
  8
0
 62
     0
 10
256.27
 20
3.01377
 30
0.0
 11
257.995
 21
3.01377
 31
0.0
  0
LINE
  8
0
 62
     0
 10
257.995
 20
3.01377
 30
0.0
 11
257.995
 21
1.8135
 31
0.0
  0
LINE
  8
0
 62
     0
 10
257.995
 20
1.8135
 30
0.0
 11
261.294
 21
1.8135
 31
0.0
  0
LINE
  8
0
 62
     0
 10
261.294
 20
1.8135
 30
0.0
 11
261.294
 21
3.01377
 31
0.0
  0
LINE
  8
0
 62
     0
 10
261.294
 20
3.01377
 30
0.0
 11
263.019
 21
3.01377
 31
0.0
  0
LINE
  8
0
 62
     0
 10
263.019
 20
3.01377
 30
0.0
 11
263.019
 21
9.28384
 31
0.0
  0
LINE
  8
0
 62
     0
 10
263.019
 20
9.28384
 30
0.0
 11
263.845
 21
9.28384
 31
0.0
  0
LINE
  8
0
 62
     0
 10
263.845
 20
9.28384
 30
0.0
 11
263.845
 21
12.0826
 31
0.0
  0
LINE
  8
0
 62
     0
 10
263.845
 20
12.0826
 30
0.0
 11
263.019
 21
12.0826
 31
0.0
  0
LINE
  8
0
 62
     0
 10
263.019
 20
12.0826
 30
0.0
 11
263.019
 21
15.3128
 31
0.0
  0
LINE
  8
0
 62
     0
 10
263.019
 20
15.3128
 30
0.0
 11
256.27
 21
15.3128
 31
0.0
  0
LINE
  8
0
 62
     0
 10
256.27
 20
15.3128
 30
0.0
 11
256.27
 21
12.0826
 31
0.0
  0
LINE
  8
0
 62
     0
 10
256.27
 20
12.0826
 30
0.0
 11
254.744
 21
12.0826
 31
0.0
  0
LINE
  8
0
 62
     0
 10
254.744
 20
12.0826
 30
0.0
 11
254.744
 21
16.7831
 31
0.0
  0
LINE
  8
0
 62
     0
 10
254.744
 20
16.7831
 30
0.0
 11
240.745
 21
16.7831
 31
0.0
  0
LINE
  8
0
 62
     0
 10
278.845
 20
16.7831
 30
0.0
 11
278.845
 21
12.0826
 31
0.0
  0
LINE
  8
0
 62
     0
 10
278.845
 20
12.0826
 30
0.0
 11
277.319
 21
12.0826
 31
0.0
  0
LINE
  8
0
 62
     0
 10
277.319
 20
12.0826
 30
0.0
 11
277.319
 21
15.3128
 31
0.0
  0
LINE
  8
0
 62
     0
 10
277.319
 20
15.3128
 30
0.0
 11
270.57
 21
15.3128
 31
0.0
  0
LINE
  8
0
 62
     0
 10
270.57
 20
15.3128
 30
0.0
 11
270.57
 21
12.0826
 31
0.0
  0
LINE
  8
0
 62
     0
 10
270.57
 20
12.0826
 30
0.0
 11
269.744
 21
12.0826
 31
0.0
  0
LINE
  8
0
 62
     0
 10
269.744
 20
12.0826
 30
0.0
 11
269.744
 21
9.28384
 31
0.0
  0
LINE
  8
0
 62
     0
 10
269.744
 20
9.28384
 30
0.0
 11
270.57
 21
9.28384
 31
0.0
  0
LINE
  8
0
 62
     0
 10
270.57
 20
9.28384
 30
0.0
 11
270.57
 21
3.01377
 31
0.0
  0
LINE
  8
0
 62
     0
 10
270.57
 20
3.01377
 30
0.0
 11
272.295
 21
3.01377
 31
0.0
  0
LINE
  8
0
 62
     0
 10
272.295
 20
3.01377
 30
0.0
 11
272.295
 21
1.8135
 31
0.0
  0
LINE
  8
0
 62
     0
 10
272.295
 20
1.8135
 30
0.0
 11
275.594
 21
1.8135
 31
0.0
  0
LINE
  8
0
 62
     0
 10
275.594
 20
1.8135
 30
0.0
 11
275.594
 21
3.01377
 31
0.0
  0
LINE
  8
0
 62
     0
 10
275.594
 20
3.01377
 30
0.0
 11
277.319
 21
3.01377
 31
0.0
  0
LINE
  8
0
 62
     0
 10
277.319
 20
3.01377
 30
0.0
 11
277.319
 21
7.48273
 31
0.0
  0
LINE
  8
0
 62
     0
 10
277.319
 20
7.48273
 30
0.0
 11
278.845
 21
7.48273
 31
0.0
  0
LINE
  8
0
 62
     0
 10
278.845
 20
7.48273
 30
0.0
 11
278.845
 21
2.78364
 31
0.0
  0
LINE
  8
0
 62
     0
 10
278.845
 20
2.78364
 30
0.0
 11
292.844
 21
2.78364
 31
0.0
  0
LINE
  8
0
 62
     0
 10
292.844
 20
2.78364
 30
0.0
 11
292.844
 21
7.48273
 31
0.0
  0
LINE
  8
0
 62
     0
 10
292.844
 20
7.48273
 30
0.0
 11
294.37
 21
7.48273
 31
0.0
  0
LINE
  8
0
 62
     0
 10
294.37
 20
7.48273
 30
0.0
 11
294.37
 21
3.01377
 31
0.0
  0
LINE
  8
0
 62
     0
 10
294.37
 20
3.01377
 30
0.0
 11
296.095
 21
3.01377
 31
0.0
  0
LINE
  8
0
 62
     0
 10
296.095
 20
3.01377
 30
0.0
 11
296.095
 21
1.8135
 31
0.0
  0
LINE
  8
0
 62
     0
 10
296.095
 20
1.8135
 30
0.0
 11
299.394
 21
1.8135
 31
0.0
  0
LINE
  8
0
 62
     0
 10
299.394
 20
1.8135
 30
0.0
 11
299.394
 21
3.01377
 31
0.0
  0
LINE
  8
0
 62
     0
 10
299.394
 20
3.01377
 30
0.0
 11
301.119
 21
3.01377
 31
0.0
  0
LINE
  8
0
 62
     0
 10
301.119
 20
3.01377
 30
0.0
 11
301.119
 21
9.28384
 31
0.0
  0
LINE
  8
0
 62
     0
 10
301.119
 20
9.28384
 30
0.0
 11
301.945
 21
9.28384
 31
0.0
  0
LINE
  8
0
 62
     0
 10
301.945
 20
9.28384
 30
0.0
 11
301.945
 21
12.0826
 31
0.0
  0
LINE
  8
0
 62
     0
 10
301.945
 20
12.0826
 30
0.0
 11
301.119
 21
12.0826
 31
0.0
  0
LINE
  8
0
 62
     0
 10
301.119
 20
12.0826
 30
0.0
 11
301.119
 21
15.3128
 31
0.0
  0
LINE
  8
0
 62
     0
 10
301.119
 20
15.3128
 30
0.0
 11
294.37
 21
15.3128
 31
0.0
  0
LINE
  8
0
 62
     0
 10
294.37
 20
15.3128
 30
0.0
 11
294.37
 21
12.0826
 31
0.0
  0
LINE
  8
0
 62
     0
 10
294.37
 20
12.0826
 30
0.0
 11
292.844
 21
12.0826
 31
0.0
  0
LINE
  8
0
 62
     0
 10
292.844
 20
12.0826
 30
0.0
 11
292.844
 21
16.7831
 31
0.0
  0
LINE
  8
0
 62
     0
 10
292.844
 20
16.7831
 30
0.0
 11
278.845
 21
16.7831
 31
0.0
  0
LINE
  8
0
 62
     0
 10
316.945
 20
16.7831
 30
0.0
 11
316.945
 21
12.0826
 31
0.0
  0
LINE
  8
0
 62
     0
 10
316.945
 20
12.0826
 30
0.0
 11
315.419
 21
12.0826
 31
0.0
  0
LINE
  8
0
 62
     0
 10
315.419
 20
12.0826
 30
0.0
 11
315.419
 21
15.3128
 31
0.0
  0
LINE
  8
0
 62
     0
 10
315.419
 20
15.3128
 30
0.0
 11
308.67
 21
15.3128
 31
0.0
  0
LINE
  8
0
 62
     0
 10
308.67
 20
15.3128
 30
0.0
 11
308.67
 21
12.0826
 31
0.0
  0
LINE
  8
0
 62
     0
 10
308.67
 20
12.0826
 30
0.0
 11
307.844
 21
12.0826
 31
0.0
  0
LINE
  8
0
 62
     0
 10
307.844
 20
12.0826
 30
0.0
 11
307.844
 21
9.28384
 31
0.0
  0
LINE
  8
0
 62
     0
 10
307.844
 20
9.28384
 30
0.0
 11
308.67
 21
9.28384
 31
0.0
  0
LINE
  8
0
 62
     0
 10
308.67
 20
9.28384
 30
0.0
 11
308.67
 21
3.01377
 31
0.0
  0
LINE
  8
0
 62
     0
 10
308.67
 20
3.01377
 30
0.0
 11
310.395
 21
3.01377
 31
0.0
  0
LINE
  8
0
 62
     0
 10
310.395
 20
3.01377
 30
0.0
 11
310.395
 21
1.8135
 31
0.0
  0
LINE
  8
0
 62
     0
 10
310.395
 20
1.8135
 30
0.0
 11
313.694
 21
1.8135
 31
0.0
  0
LINE
  8
0
 62
     0
 10
313.694
 20
1.8135
 30
0.0
 11
313.694
 21
3.01377
 31
0.0
  0
LINE
  8
0
 62
     0
 10
313.694
 20
3.01377
 30
0.0
 11
315.419
 21
3.01377
 31
0.0
  0
LINE
  8
0
 62
     0
 10
315.419
 20
3.01377
 30
0.0
 11
315.419
 21
7.48273
 31
0.0
  0
LINE
  8
0
 62
     0
 10
315.419
 20
7.48273
 30
0.0
 11
316.945
 21
7.48273
 31
0.0
  0
LINE
  8
0
 62
     0
 10
316.945
 20
7.48273
 30
0.0
 11
316.945
 21
2.78364
 31
0.0
  0
LINE
  8
0
 62
     0
 10
316.945
 20
2.78364
 30
0.0
 11
330.944
 21
2.78364
 31
0.0
  0
LINE
  8
0
 62
     0
 10
330.944
 20
2.78364
 30
0.0
 11
330.944
 21
7.48273
 31
0.0
  0
LINE
  8
0
 62
     0
 10
330.944
 20
7.48273
 30
0.0
 11
332.47
 21
7.48273
 31
0.0
  0
LINE
  8
0
 62
     0
 10
332.47
 20
7.48273
 30
0.0
 11
332.47
 21
3.01377
 31
0.0
  0
LINE
  8
0
 62
     0
 10
332.47
 20
3.01377
 30
0.0
 11
334.195
 21
3.01377
 31
0.0
  0
LINE
  8
0
 62
     0
 10
334.195
 20
3.01377
 30
0.0
 11
334.195
 21
1.8135
 31
0.0
  0
LINE
  8
0
 62
     0
 10
334.195
 20
1.8135
 30
0.0
 11
337.494
 21
1.8135
 31
0.0
  0
LINE
  8
0
 62
     0
 10
337.494
 20
1.8135
 30
0.0
 11
337.494
 21
3.01377
 31
0.0
  0
LINE
  8
0
 62
     0
 10
337.494
 20
3.01377
 30
0.0
 11
339.219
 21
3.01377
 31
0.0
  0
LINE
  8
0
 62
     0
 10
339.219
 20
3.01377
 30
0.0
 11
339.219
 21
9.28384
 31
0.0
  0
LINE
  8
0
 62
     0
 10
339.219
 20
9.28384
 30
0.0
 11
340.045
 21
9.28384
 31
0.0
  0
LINE
  8
0
 62
     0
 10
340.045
 20
9.28384
 30
0.0
 11
340.045
 21
12.0826
 31
0.0
  0
LINE
  8
0
 62
     0
 10
340.045
 20
12.0826
 30
0.0
 11
339.219
 21
12.0826
 31
0.0
  0
LINE
  8
0
 62
     0
 10
339.219
 20
12.0826
 30
0.0
 11
339.219
 21
15.3128
 31
0.0
  0
LINE
  8
0
 62
     0
 10
339.219
 20
15.3128
 30
0.0
 11
332.47
 21
15.3128
 31
0.0
  0
LINE
  8
0
 62
     0
 10
332.47
 20
15.3128
 30
0.0
 11
332.47
 21
12.0826
 31
0.0
  0
LINE
  8
0
 62
     0
 10
332.47
 20
12.0826
 30
0.0
 11
330.944
 21
12.0826
 31
0.0
  0
LINE
  8
0
 62
     0
 10
330.944
 20
12.0826
 30
0.0
 11
330.944
 21
16.7831
 31
0.0
  0
LINE
  8
0
 62
     0
 10
330.944
 20
16.7831
 30
0.0
 11
316.945
 21
16.7831
 31
0.0
  0
LINE
  8
0
 62
     0
 10
128.826
 20
16.7831
 30
0.0
 11
142.825
 21
16.7831
 31
0.0
  0
LINE
  8
0
 62
     0
 10
142.825
 20
16.7831
 30
0.0
 11
142.825
 21
2.78364
 31
0.0
  0
LINE
  8
0
 62
     0
 10
142.825
 20
2.78364
 30
0.0
 11
128.826
 21
2.78364
 31
0.0
  0
LINE
  8
0
 62
     0
 10
128.826
 20
2.78364
 30
0.0
 11
128.826
 21
16.7831
 31
0.0
  0
LINE
  8
0
 62
     0
 10
352.02
 20
35.4087
 30
0.0
 11
352.02
 21
34.5833
 31
0.0
  0
LINE
  8
0
 62
     0
 10
352.02
 20
34.5833
 30
0.0
 11
345.75
 21
34.5833
 31
0.0
  0
LINE
  8
0
 62
     0
 10
345.75
 20
34.5833
 30
0.0
 11
345.75
 21
32.8579
 31
0.0
  0
LINE
  8
0
 62
     0
 10
345.75
 20
32.8579
 30
0.0
 11
344.55
 21
32.8579
 31
0.0
  0
LINE
  8
0
 62
     0
 10
344.55
 20
32.8579
 30
0.0
 11
344.55
 21
29.5589
 31
0.0
  0
LINE
  8
0
 62
     0
 10
344.55
 20
29.5589
 30
0.0
 11
345.75
 21
29.5589
 31
0.0
  0
LINE
  8
0
 62
     0
 10
345.75
 20
29.5589
 30
0.0
 11
345.75
 21
27.8336
 31
0.0
  0
LINE
  8
0
 62
     0
 10
345.75
 20
27.8336
 30
0.0
 11
350.22
 21
27.8336
 31
0.0
  0
LINE
  8
0
 62
     0
 10
350.22
 20
27.8336
 30
0.0
 11
350.22
 21
26.3081
 31
0.0
  0
LINE
  8
0
 62
     0
 10
350.22
 20
26.3081
 30
0.0
 11
345.52
 21
26.3081
 31
0.0
  0
LINE
  8
0
 62
     0
 10
345.52
 20
26.3081
 30
0.0
 11
345.52
 21
12.3086
 31
0.0
  0
LINE
  8
0
 62
     0
 10
345.52
 20
12.3086
 30
0.0
 11
350.22
 21
12.3086
 31
0.0
  0
LINE
  8
0
 62
     0
 10
350.22
 20
12.3086
 30
0.0
 11
350.22
 21
10.7831
 31
0.0
  0
LINE
  8
0
 62
     0
 10
350.22
 20
10.7831
 30
0.0
 11
345.75
 21
10.7831
 31
0.0
  0
LINE
  8
0
 62
     0
 10
345.75
 20
10.7831
 30
0.0
 11
345.75
 21
9.05785
 31
0.0
  0
LINE
  8
0
 62
     0
 10
345.75
 20
9.05785
 30
0.0
 11
344.55
 21
9.05785
 31
0.0
  0
LINE
  8
0
 62
     0
 10
344.55
 20
9.05785
 30
0.0
 11
344.55
 21
5.75881
 31
0.0
  0
LINE
  8
0
 62
     0
 10
344.55
 20
5.75881
 30
0.0
 11
345.75
 21
5.75881
 31
0.0
  0
LINE
  8
0
 62
     0
 10
345.75
 20
5.75881
 30
0.0
 11
345.75
 21
4.03352
 31
0.0
  0
LINE
  8
0
 62
     0
 10
345.75
 20
4.03352
 30
0.0
 11
352.02
 21
4.03352
 31
0.0
  0
LINE
  8
0
 62
     0
 10
352.02
 20
4.03352
 30
0.0
 11
352.02
 21
3.20807
 31
0.0
  0
LINE
  8
0
 62
     0
 10
352.02
 20
3.20807
 30
0.0
 11
354.82
 21
3.20807
 31
0.0
  0
LINE
  8
0
 62
     0
 10
354.82
 20
3.20807
 30
0.0
 11
354.82
 21
4.03352
 31
0.0
  0
LINE
  8
0
 62
     0
 10
354.82
 20
4.03352
 30
0.0
 11
358.052
 21
4.03352
 31
0.0
  0
LINE
  8
0
 62
     0
 10
358.052
 20
4.03352
 30
0.0
 11
358.052
 21
10.7831
 31
0.0
  0
LINE
  8
0
 62
     0
 10
358.052
 20
10.7831
 30
0.0
 11
354.82
 21
10.7831
 31
0.0
  0
LINE
  8
0
 62
     0
 10
354.82
 20
10.7831
 30
0.0
 11
354.82
 21
12.3086
 31
0.0
  0
LINE
  8
0
 62
     0
 10
354.82
 20
12.3086
 30
0.0
 11
359.519
 21
12.3086
 31
0.0
  0
LINE
  8
0
 62
     0
 10
359.519
 20
12.3086
 30
0.0
 11
359.519
 21
26.3081
 31
0.0
  0
LINE
  8
0
 62
     0
 10
359.519
 20
26.3081
 30
0.0
 11
354.82
 21
26.3081
 31
0.0
  0
LINE
  8
0
 62
     0
 10
354.82
 20
26.3081
 30
0.0
 11
354.82
 21
27.8336
 31
0.0
  0
LINE
  8
0
 62
     0
 10
354.82
 20
27.8336
 30
0.0
 11
358.052
 21
27.8336
 31
0.0
  0
LINE
  8
0
 62
     0
 10
358.052
 20
27.8336
 30
0.0
 11
358.052
 21
34.5833
 31
0.0
  0
LINE
  8
0
 62
     0
 10
358.052
 20
34.5833
 30
0.0
 11
354.82
 21
34.5833
 31
0.0
  0
LINE
  8
0
 62
     0
 10
354.82
 20
34.5833
 30
0.0
 11
354.82
 21
35.4087
 31
0.0
  0
LINE
  8
0
 62
     0
 10
354.82
 20
35.4087
 30
0.0
 11
352.02
 21
35.4087
 31
0.0
  0
LINE
  8
0
 62
     0
 10
7.38216
 20
35.833
 30
0.0
 11
21.3817
 21
35.833
 31
0.0
  0
LINE
  8
0
 62
     0
 10
21.3817
 20
35.833
 30
0.0
 11
21.3817
 21
21.8336
 31
0.0
  0
LINE
  8
0
 62
     0
 10
21.3817
 20
21.8336
 30
0.0
 11
7.38216
 21
21.8336
 31
0.0
  0
LINE
  8
0
 62
     0
 10
7.38216
 20
21.8336
 30
0.0
 11
7.38216
 21
35.833
 31
0.0
  0
LINE
  8
0
 62
     0
 10
31.1947
 20
35.833
 30
0.0
 11
45.194
 21
35.833
 31
0.0
  0
LINE
  8
0
 62
     0
 10
45.194
 20
35.833
 30
0.0
 11
45.194
 21
21.8336
 31
0.0
  0
LINE
  8
0
 62
     0
 10
45.194
 20
21.8336
 30
0.0
 11
31.1947
 21
21.8336
 31
0.0
  0
LINE
  8
0
 62
     0
 10
31.1947
 20
21.8336
 30
0.0
 11
31.1947
 21
35.833
 31
0.0
  0
LINE
  8
0
 62
     0
 10
50.2447
 20
35.833
 30
0.0
 11
64.244
 21
35.833
 31
0.0
  0
LINE
  8
0
 62
     0
 10
64.244
 20
35.833
 30
0.0
 11
64.244
 21
21.8336
 31
0.0
  0
LINE
  8
0
 62
     0
 10
64.244
 20
21.8336
 30
0.0
 11
50.2447
 21
21.8336
 31
0.0
  0
LINE
  8
0
 62
     0
 10
50.2447
 20
21.8336
 30
0.0
 11
50.2447
 21
35.833
 31
0.0
  0
LINE
  8
0
 62
     0
 10
69.2947
 20
35.833
 30
0.0
 11
83.294
 21
35.833
 31
0.0
  0
LINE
  8
0
 62
     0
 10
83.294
 20
35.833
 30
0.0
 11
83.294
 21
21.8336
 31
0.0
  0
LINE
  8
0
 62
     0
 10
83.294
 20
21.8336
 30
0.0
 11
69.2947
 21
21.8336
 31
0.0
  0
LINE
  8
0
 62
     0
 10
69.2947
 20
21.8336
 30
0.0
 11
69.2947
 21
35.833
 31
0.0
  0
LINE
  8
0
 62
     0
 10
88.3447
 20
35.833
 30
0.0
 11
102.344
 21
35.833
 31
0.0
  0
LINE
  8
0
 62
     0
 10
102.344
 20
35.833
 30
0.0
 11
102.344
 21
21.8336
 31
0.0
  0
LINE
  8
0
 62
     0
 10
102.344
 20
21.8336
 30
0.0
 11
88.3447
 21
21.8336
 31
0.0
  0
LINE
  8
0
 62
     0
 10
88.3447
 20
21.8336
 30
0.0
 11
88.3447
 21
35.833
 31
0.0
  0
LINE
  8
0
 62
     0
 10
107.395
 20
35.833
 30
0.0
 11
121.394
 21
35.833
 31
0.0
  0
LINE
  8
0
 62
     0
 10
121.394
 20
35.833
 30
0.0
 11
121.394
 21
21.8336
 31
0.0
  0
LINE
  8
0
 62
     0
 10
121.394
 20
21.8336
 30
0.0
 11
107.395
 21
21.8336
 31
0.0
  0
LINE
  8
0
 62
     0
 10
107.395
 20
21.8336
 30
0.0
 11
107.395
 21
35.833
 31
0.0
  0
LINE
  8
0
 62
     0
 10
126.445
 20
35.833
 30
0.0
 11
140.444
 21
35.833
 31
0.0
  0
LINE
  8
0
 62
     0
 10
140.444
 20
35.833
 30
0.0
 11
140.444
 21
21.8336
 31
0.0
  0
LINE
  8
0
 62
     0
 10
140.444
 20
21.8336
 30
0.0
 11
126.445
 21
21.8336
 31
0.0
  0
LINE
  8
0
 62
     0
 10
126.445
 20
21.8336
 30
0.0
 11
126.445
 21
35.833
 31
0.0
  0
LINE
  8
0
 62
     0
 10
145.495
 20
35.833
 30
0.0
 11
159.494
 21
35.833
 31
0.0
  0
LINE
  8
0
 62
     0
 10
159.494
 20
35.833
 30
0.0
 11
159.494
 21
21.8336
 31
0.0
  0
LINE
  8
0
 62
     0
 10
159.494
 20
21.8336
 30
0.0
 11
145.495
 21
21.8336
 31
0.0
  0
LINE
  8
0
 62
     0
 10
145.495
 20
21.8336
 30
0.0
 11
145.495
 21
35.833
 31
0.0
  0
LINE
  8
0
 62
     0
 10
164.545
 20
35.833
 30
0.0
 11
178.544
 21
35.833
 31
0.0
  0
LINE
  8
0
 62
     0
 10
178.544
 20
35.833
 30
0.0
 11
178.544
 21
21.8336
 31
0.0
  0
LINE
  8
0
 62
     0
 10
178.544
 20
21.8336
 30
0.0
 11
164.545
 21
21.8336
 31
0.0
  0
LINE
  8
0
 62
     0
 10
164.545
 20
21.8336
 30
0.0
 11
164.545
 21
35.833
 31
0.0
  0
LINE
  8
0
 62
     0
 10
183.595
 20
35.833
 30
0.0
 11
197.594
 21
35.833
 31
0.0
  0
LINE
  8
0
 62
     0
 10
197.594
 20
35.833
 30
0.0
 11
197.594
 21
21.8336
 31
0.0
  0
LINE
  8
0
 62
     0
 10
197.594
 20
21.8336
 30
0.0
 11
183.595
 21
21.8336
 31
0.0
  0
LINE
  8
0
 62
     0
 10
183.595
 20
21.8336
 30
0.0
 11
183.595
 21
35.833
 31
0.0
  0
LINE
  8
0
 62
     0
 10
202.645
 20
35.833
 30
0.0
 11
216.644
 21
35.833
 31
0.0
  0
LINE
  8
0
 62
     0
 10
216.644
 20
35.833
 30
0.0
 11
216.644
 21
21.8336
 31
0.0
  0
LINE
  8
0
 62
     0
 10
216.644
 20
21.8336
 30
0.0
 11
202.645
 21
21.8336
 31
0.0
  0
LINE
  8
0
 62
     0
 10
202.645
 20
21.8336
 30
0.0
 11
202.645
 21
35.833
 31
0.0
  0
LINE
  8
0
 62
     0
 10
221.695
 20
35.833
 30
0.0
 11
235.694
 21
35.833
 31
0.0
  0
LINE
  8
0
 62
     0
 10
235.694
 20
35.833
 30
0.0
 11
235.694
 21
21.8336
 31
0.0
  0
LINE
  8
0
 62
     0
 10
235.694
 20
21.8336
 30
0.0
 11
221.695
 21
21.8336
 31
0.0
  0
LINE
  8
0
 62
     0
 10
221.695
 20
21.8336
 30
0.0
 11
221.695
 21
35.833
 31
0.0
  0
LINE
  8
0
 62
     0
 10
245.507
 20
35.833
 30
0.0
 11
259.507
 21
35.833
 31
0.0
  0
LINE
  8
0
 62
     0
 10
259.507
 20
35.833
 30
0.0
 11
259.507
 21
21.8336
 31
0.0
  0
LINE
  8
0
 62
     0
 10
259.507
 20
21.8336
 30
0.0
 11
245.507
 21
21.8336
 31
0.0
  0
LINE
  8
0
 62
     0
 10
245.507
 20
21.8336
 30
0.0
 11
245.507
 21
35.833
 31
0.0
  0
LINE
  8
0
 62
     0
 10
288.37
 20
35.833
 30
0.0
 11
302.369
 21
35.833
 31
0.0
  0
LINE
  8
0
 62
     0
 10
302.369
 20
35.833
 30
0.0
 11
302.369
 21
21.8336
 31
0.0
  0
LINE
  8
0
 62
     0
 10
302.369
 20
21.8336
 30
0.0
 11
288.37
 21
21.8336
 31
0.0
  0
LINE
  8
0
 62
     0
 10
288.37
 20
21.8336
 30
0.0
 11
288.37
 21
35.833
 31
0.0
  0
LINE
  8
0
 62
     0
 10
307.42
 20
35.833
 30
0.0
 11
321.419
 21
35.833
 31
0.0
  0
LINE
  8
0
 62
     0
 10
321.419
 20
35.833
 30
0.0
 11
321.419
 21
21.8336
 31
0.0
  0
LINE
  8
0
 62
     0
 10
321.419
 20
21.8336
 30
0.0
 11
307.42
 21
21.8336
 31
0.0
  0
LINE
  8
0
 62
     0
 10
307.42
 20
21.8336
 30
0.0
 11
307.42
 21
35.833
 31
0.0
  0
LINE
  8
0
 62
     0
 10
326.47
 20
35.833
 30
0.0
 11
340.469
 21
35.833
 31
0.0
  0
LINE
  8
0
 62
     0
 10
340.469
 20
35.833
 30
0.0
 11
340.469
 21
21.8336
 31
0.0
  0
LINE
  8
0
 62
     0
 10
340.469
 20
21.8336
 30
0.0
 11
326.47
 21
21.8336
 31
0.0
  0
LINE
  8
0
 62
     0
 10
326.47
 20
21.8336
 30
0.0
 11
326.47
 21
35.833
 31
0.0
  0
LINE
  8
0
 62
     0
 10
275.82
 20
54.4587
 30
0.0
 11
275.82
 21
53.6332
 31
0.0
  0
LINE
  8
0
 62
     0
 10
275.82
 20
53.6332
 30
0.0
 11
269.55
 21
53.6332
 31
0.0
  0
LINE
  8
0
 62
     0
 10
269.55
 20
53.6332
 30
0.0
 11
269.55
 21
51.9081
 31
0.0
  0
LINE
  8
0
 62
     0
 10
269.55
 20
51.9081
 30
0.0
 11
268.35
 21
51.9081
 31
0.0
  0
LINE
  8
0
 62
     0
 10
268.35
 20
51.9081
 30
0.0
 11
268.35
 21
48.6089
 31
0.0
  0
LINE
  8
0
 62
     0
 10
268.35
 20
48.6089
 30
0.0
 11
269.55
 21
48.6089
 31
0.0
  0
LINE
  8
0
 62
     0
 10
269.55
 20
48.6089
 30
0.0
 11
269.55
 21
46.8835
 31
0.0
  0
LINE
  8
0
 62
     0
 10
269.55
 20
46.8835
 30
0.0
 11
274.02
 21
46.8835
 31
0.0
  0
LINE
  8
0
 62
     0
 10
274.02
 20
46.8835
 30
0.0
 11
274.02
 21
45.3581
 31
0.0
  0
LINE
  8
0
 62
     0
 10
274.02
 20
45.3581
 30
0.0
 11
269.32
 21
45.3581
 31
0.0
  0
LINE
  8
0
 62
     0
 10
269.32
 20
45.3581
 30
0.0
 11
269.32
 21
31.3586
 31
0.0
  0
LINE
  8
0
 62
     0
 10
269.32
 20
31.3586
 30
0.0
 11
274.02
 21
31.3586
 31
0.0
  0
LINE
  8
0
 62
     0
 10
274.02
 20
31.3586
 30
0.0
 11
274.02
 21
29.8331
 31
0.0
  0
LINE
  8
0
 62
     0
 10
274.02
 20
29.8331
 30
0.0
 11
269.55
 21
29.8331
 31
0.0
  0
LINE
  8
0
 62
     0
 10
269.55
 20
29.8331
 30
0.0
 11
269.55
 21
28.1079
 31
0.0
  0
LINE
  8
0
 62
     0
 10
269.55
 20
28.1079
 30
0.0
 11
268.35
 21
28.1079
 31
0.0
  0
LINE
  8
0
 62
     0
 10
268.35
 20
28.1079
 30
0.0
 11
268.35
 21
24.8088
 31
0.0
  0
LINE
  8
0
 62
     0
 10
268.35
 20
24.8088
 30
0.0
 11
269.55
 21
24.8088
 31
0.0
  0
LINE
  8
0
 62
     0
 10
269.55
 20
24.8088
 30
0.0
 11
269.55
 21
23.0835
 31
0.0
  0
LINE
  8
0
 62
     0
 10
269.55
 20
23.0835
 30
0.0
 11
275.82
 21
23.0835
 31
0.0
  0
LINE
  8
0
 62
     0
 10
275.82
 20
23.0835
 30
0.0
 11
275.82
 21
22.2581
 31
0.0
  0
LINE
  8
0
 62
     0
 10
275.82
 20
22.2581
 30
0.0
 11
278.62
 21
22.2581
 31
0.0
  0
LINE
  8
0
 62
     0
 10
278.62
 20
22.2581
 30
0.0
 11
278.62
 21
23.0835
 31
0.0
  0
LINE
  8
0
 62
     0
 10
278.62
 20
23.0835
 30
0.0
 11
281.85
 21
23.0835
 31
0.0
  0
LINE
  8
0
 62
     0
 10
281.85
 20
23.0835
 30
0.0
 11
281.85
 21
29.8331
 31
0.0
  0
LINE
  8
0
 62
     0
 10
281.85
 20
29.8331
 30
0.0
 11
278.62
 21
29.8331
 31
0.0
  0
LINE
  8
0
 62
     0
 10
278.62
 20
29.8331
 30
0.0
 11
278.62
 21
31.3586
 31
0.0
  0
LINE
  8
0
 62
     0
 10
278.62
 20
31.3586
 30
0.0
 11
283.319
 21
31.3586
 31
0.0
  0
LINE
  8
0
 62
     0
 10
283.319
 20
31.3586
 30
0.0
 11
283.319
 21
45.3581
 31
0.0
  0
LINE
  8
0
 62
     0
 10
283.319
 20
45.3581
 30
0.0
 11
278.62
 21
45.3581
 31
0.0
  0
LINE
  8
0
 62
     0
 10
278.62
 20
45.3581
 30
0.0
 11
278.62
 21
46.8835
 31
0.0
  0
LINE
  8
0
 62
     0
 10
278.62
 20
46.8835
 30
0.0
 11
281.85
 21
46.8835
 31
0.0
  0
LINE
  8
0
 62
     0
 10
281.85
 20
46.8835
 30
0.0
 11
281.85
 21
53.6332
 31
0.0
  0
LINE
  8
0
 62
     0
 10
281.85
 20
53.6332
 30
0.0
 11
278.62
 21
53.6332
 31
0.0
  0
LINE
  8
0
 62
     0
 10
278.62
 20
53.6332
 30
0.0
 11
278.62
 21
54.4587
 31
0.0
  0
LINE
  8
0
 62
     0
 10
278.62
 20
54.4587
 30
0.0
 11
275.82
 21
54.4587
 31
0.0
  0
LINE
  8
0
 62
     0
 10
12.1447
 20
54.8831
 30
0.0
 11
12.1447
 21
50.1826
 31
0.0
  0
LINE
  8
0
 62
     0
 10
12.1447
 20
50.1826
 30
0.0
 11
10.6192
 21
50.1826
 31
0.0
  0
LINE
  8
0
 62
     0
 10
10.6192
 20
50.1826
 30
0.0
 11
10.6192
 21
53.4127
 31
0.0
  0
LINE
  8
0
 62
     0
 10
10.6192
 20
53.4127
 30
0.0
 11
3.86955
 21
53.4127
 31
0.0
  0
LINE
  8
0
 62
     0
 10
3.86955
 20
53.4127
 30
0.0
 11
3.86955
 21
50.1826
 31
0.0
  0
LINE
  8
0
 62
     0
 10
3.86955
 20
50.1826
 30
0.0
 11
3.04409
 21
50.1826
 31
0.0
  0
LINE
  8
0
 62
     0
 10
3.04409
 20
50.1826
 30
0.0
 11
3.04409
 21
47.3837
 31
0.0
  0
LINE
  8
0
 62
     0
 10
3.04409
 20
47.3837
 30
0.0
 11
3.86955
 21
47.3837
 31
0.0
  0
LINE
  8
0
 62
     0
 10
3.86955
 20
47.3837
 30
0.0
 11
3.86955
 21
41.1138
 31
0.0
  0
LINE
  8
0
 62
     0
 10
3.86955
 20
41.1138
 30
0.0
 11
5.59484
 21
41.1138
 31
0.0
  0
LINE
  8
0
 62
     0
 10
5.59484
 20
41.1138
 30
0.0
 11
5.59484
 21
39.9136
 31
0.0
  0
LINE
  8
0
 62
     0
 10
5.59484
 20
39.9136
 30
0.0
 11
8.89385
 21
39.9136
 31
0.0
  0
LINE
  8
0
 62
     0
 10
8.89385
 20
39.9136
 30
0.0
 11
8.89385
 21
41.1138
 31
0.0
  0
LINE
  8
0
 62
     0
 10
8.89385
 20
41.1138
 30
0.0
 11
10.6192
 21
41.1138
 31
0.0
  0
LINE
  8
0
 62
     0
 10
10.6192
 20
41.1138
 30
0.0
 11
10.6192
 21
45.5828
 31
0.0
  0
LINE
  8
0
 62
     0
 10
10.6192
 20
45.5828
 30
0.0
 11
12.1447
 21
45.5828
 31
0.0
  0
LINE
  8
0
 62
     0
 10
12.1447
 20
45.5828
 30
0.0
 11
12.1447
 21
40.8838
 31
0.0
  0
LINE
  8
0
 62
     0
 10
12.1447
 20
40.8838
 30
0.0
 11
26.1441
 21
40.8838
 31
0.0
  0
LINE
  8
0
 62
     0
 10
26.1441
 20
40.8838
 30
0.0
 11
26.1441
 21
45.5828
 31
0.0
  0
LINE
  8
0
 62
     0
 10
26.1441
 20
45.5828
 30
0.0
 11
27.6696
 21
45.5828
 31
0.0
  0
LINE
  8
0
 62
     0
 10
27.6696
 20
45.5828
 30
0.0
 11
27.6696
 21
41.1138
 31
0.0
  0
LINE
  8
0
 62
     0
 10
27.6696
 20
41.1138
 30
0.0
 11
29.3949
 21
41.1138
 31
0.0
  0
LINE
  8
0
 62
     0
 10
29.3949
 20
41.1138
 30
0.0
 11
29.3949
 21
39.9136
 31
0.0
  0
LINE
  8
0
 62
     0
 10
29.3949
 20
39.9136
 30
0.0
 11
32.694
 21
39.9136
 31
0.0
  0
LINE
  8
0
 62
     0
 10
32.694
 20
39.9136
 30
0.0
 11
32.694
 21
41.1138
 31
0.0
  0
LINE
  8
0
 62
     0
 10
32.694
 20
41.1138
 30
0.0
 11
34.4193
 21
41.1138
 31
0.0
  0
LINE
  8
0
 62
     0
 10
34.4193
 20
41.1138
 30
0.0
 11
34.4193
 21
47.3837
 31
0.0
  0
LINE
  8
0
 62
     0
 10
34.4193
 20
47.3837
 30
0.0
 11
35.2447
 21
47.3837
 31
0.0
  0
LINE
  8
0
 62
     0
 10
35.2447
 20
47.3837
 30
0.0
 11
35.2447
 21
50.1826
 31
0.0
  0
LINE
  8
0
 62
     0
 10
35.2447
 20
50.1826
 30
0.0
 11
34.4193
 21
50.1826
 31
0.0
  0
LINE
  8
0
 62
     0
 10
34.4193
 20
50.1826
 30
0.0
 11
34.4193
 21
53.4127
 31
0.0
  0
LINE
  8
0
 62
     0
 10
34.4193
 20
53.4127
 30
0.0
 11
27.6696
 21
53.4127
 31
0.0
  0
LINE
  8
0
 62
     0
 10
27.6696
 20
53.4127
 30
0.0
 11
27.6696
 21
50.1826
 31
0.0
  0
LINE
  8
0
 62
     0
 10
27.6696
 20
50.1826
 30
0.0
 11
26.1441
 21
50.1826
 31
0.0
  0
LINE
  8
0
 62
     0
 10
26.1441
 20
50.1826
 30
0.0
 11
26.1441
 21
54.8831
 31
0.0
  0
LINE
  8
0
 62
     0
 10
26.1441
 20
54.8831
 30
0.0
 11
12.1447
 21
54.8831
 31
0.0
  0
LINE
  8
0
 62
     0
 10
40.7197
 20
54.8831
 30
0.0
 11
54.719
 21
54.8831
 31
0.0
  0
LINE
  8
0
 62
     0
 10
54.719
 20
54.8831
 30
0.0
 11
54.719
 21
40.8838
 31
0.0
  0
LINE
  8
0
 62
     0
 10
54.719
 20
40.8838
 30
0.0
 11
40.7197
 21
40.8838
 31
0.0
  0
LINE
  8
0
 62
     0
 10
40.7197
 20
40.8838
 30
0.0
 11
40.7197
 21
54.8831
 31
0.0
  0
LINE
  8
0
 62
     0
 10
59.7697
 20
54.8831
 30
0.0
 11
73.769
 21
54.8831
 31
0.0
  0
LINE
  8
0
 62
     0
 10
73.769
 20
54.8831
 30
0.0
 11
73.769
 21
40.8838
 31
0.0
  0
LINE
  8
0
 62
     0
 10
73.769
 20
40.8838
 30
0.0
 11
59.7697
 21
40.8838
 31
0.0
  0
LINE
  8
0
 62
     0
 10
59.7697
 20
40.8838
 30
0.0
 11
59.7697
 21
54.8831
 31
0.0
  0
LINE
  8
0
 62
     0
 10
78.8197
 20
54.8831
 30
0.0
 11
92.819
 21
54.8831
 31
0.0
  0
LINE
  8
0
 62
     0
 10
92.819
 20
54.8831
 30
0.0
 11
92.819
 21
40.8838
 31
0.0
  0
LINE
  8
0
 62
     0
 10
92.819
 20
40.8838
 30
0.0
 11
78.8197
 21
40.8838
 31
0.0
  0
LINE
  8
0
 62
     0
 10
78.8197
 20
40.8838
 30
0.0
 11
78.8197
 21
54.8831
 31
0.0
  0
LINE
  8
0
 62
     0
 10
97.8683
 20
54.8831
 30
0.0
 11
111.869
 21
54.8831
 31
0.0
  0
LINE
  8
0
 62
     0
 10
111.869
 20
54.8831
 30
0.0
 11
111.869
 21
40.8838
 31
0.0
  0
LINE
  8
0
 62
     0
 10
111.869
 20
40.8838
 30
0.0
 11
97.8683
 21
40.8838
 31
0.0
  0
LINE
  8
0
 62
     0
 10
97.8683
 20
40.8838
 30
0.0
 11
97.8683
 21
54.8831
 31
0.0
  0
LINE
  8
0
 62
     0
 10
116.918
 20
54.8831
 30
0.0
 11
130.919
 21
54.8831
 31
0.0
  0
LINE
  8
0
 62
     0
 10
130.919
 20
54.8831
 30
0.0
 11
130.919
 21
40.8838
 31
0.0
  0
LINE
  8
0
 62
     0
 10
130.919
 20
40.8838
 30
0.0
 11
116.918
 21
40.8838
 31
0.0
  0
LINE
  8
0
 62
     0
 10
116.918
 20
40.8838
 30
0.0
 11
116.918
 21
54.8831
 31
0.0
  0
LINE
  8
0
 62
     0
 10
135.97
 20
54.8831
 30
0.0
 11
149.969
 21
54.8831
 31
0.0
  0
LINE
  8
0
 62
     0
 10
149.969
 20
54.8831
 30
0.0
 11
149.969
 21
40.8838
 31
0.0
  0
LINE
  8
0
 62
     0
 10
149.969
 20
40.8838
 30
0.0
 11
135.97
 21
40.8838
 31
0.0
  0
LINE
  8
0
 62
     0
 10
135.97
 20
40.8838
 30
0.0
 11
135.97
 21
54.8831
 31
0.0
  0
LINE
  8
0
 62
     0
 10
155.02
 20
54.8831
 30
0.0
 11
169.019
 21
54.8831
 31
0.0
  0
LINE
  8
0
 62
     0
 10
169.019
 20
54.8831
 30
0.0
 11
169.019
 21
40.8838
 31
0.0
  0
LINE
  8
0
 62
     0
 10
169.019
 20
40.8838
 30
0.0
 11
155.02
 21
40.8838
 31
0.0
  0
LINE
  8
0
 62
     0
 10
155.02
 20
40.8838
 30
0.0
 11
155.02
 21
54.8831
 31
0.0
  0
LINE
  8
0
 62
     0
 10
174.07
 20
54.8831
 30
0.0
 11
188.069
 21
54.8831
 31
0.0
  0
LINE
  8
0
 62
     0
 10
188.069
 20
54.8831
 30
0.0
 11
188.069
 21
40.8838
 31
0.0
  0
LINE
  8
0
 62
     0
 10
188.069
 20
40.8838
 30
0.0
 11
174.07
 21
40.8838
 31
0.0
  0
LINE
  8
0
 62
     0
 10
174.07
 20
40.8838
 30
0.0
 11
174.07
 21
54.8831
 31
0.0
  0
LINE
  8
0
 62
     0
 10
193.12
 20
54.8831
 30
0.0
 11
207.119
 21
54.8831
 31
0.0
  0
LINE
  8
0
 62
     0
 10
207.119
 20
54.8831
 30
0.0
 11
207.119
 21
40.8838
 31
0.0
  0
LINE
  8
0
 62
     0
 10
207.119
 20
40.8838
 30
0.0
 11
193.12
 21
40.8838
 31
0.0
  0
LINE
  8
0
 62
     0
 10
193.12
 20
40.8838
 30
0.0
 11
193.12
 21
54.8831
 31
0.0
  0
LINE
  8
0
 62
     0
 10
212.17
 20
54.8831
 30
0.0
 11
226.169
 21
54.8831
 31
0.0
  0
LINE
  8
0
 62
     0
 10
226.169
 20
54.8831
 30
0.0
 11
226.169
 21
40.8838
 31
0.0
  0
LINE
  8
0
 62
     0
 10
226.169
 20
40.8838
 30
0.0
 11
212.17
 21
40.8838
 31
0.0
  0
LINE
  8
0
 62
     0
 10
212.17
 20
40.8838
 30
0.0
 11
212.17
 21
54.8831
 31
0.0
  0
LINE
  8
0
 62
     0
 10
231.22
 20
54.8831
 30
0.0
 11
245.219
 21
54.8831
 31
0.0
  0
LINE
  8
0
 62
     0
 10
245.219
 20
54.8831
 30
0.0
 11
245.219
 21
40.8838
 31
0.0
  0
LINE
  8
0
 62
     0
 10
245.219
 20
40.8838
 30
0.0
 11
231.22
 21
40.8838
 31
0.0
  0
LINE
  8
0
 62
     0
 10
231.22
 20
40.8838
 30
0.0
 11
231.22
 21
54.8831
 31
0.0
  0
LINE
  8
0
 62
     0
 10
250.27
 20
54.8831
 30
0.0
 11
264.269
 21
54.8831
 31
0.0
  0
LINE
  8
0
 62
     0
 10
264.269
 20
54.8831
 30
0.0
 11
264.269
 21
40.8838
 31
0.0
  0
LINE
  8
0
 62
     0
 10
264.269
 20
40.8838
 30
0.0
 11
250.27
 21
40.8838
 31
0.0
  0
LINE
  8
0
 62
     0
 10
250.27
 20
40.8838
 30
0.0
 11
250.27
 21
54.8831
 31
0.0
  0
LINE
  8
0
 62
     0
 10
288.37
 20
54.8831
 30
0.0
 11
302.369
 21
54.8831
 31
0.0
  0
LINE
  8
0
 62
     0
 10
302.369
 20
54.8831
 30
0.0
 11
302.369
 21
40.8838
 31
0.0
  0
LINE
  8
0
 62
     0
 10
302.369
 20
40.8838
 30
0.0
 11
288.37
 21
40.8838
 31
0.0
  0
LINE
  8
0
 62
     0
 10
288.37
 20
40.8838
 30
0.0
 11
288.37
 21
54.8831
 31
0.0
  0
LINE
  8
0
 62
     0
 10
307.42
 20
54.8831
 30
0.0
 11
321.419
 21
54.8831
 31
0.0
  0
LINE
  8
0
 62
     0
 10
321.419
 20
54.8831
 30
0.0
 11
321.419
 21
40.8838
 31
0.0
  0
LINE
  8
0
 62
     0
 10
321.419
 20
40.8838
 30
0.0
 11
307.42
 21
40.8838
 31
0.0
  0
LINE
  8
0
 62
     0
 10
307.42
 20
40.8838
 30
0.0
 11
307.42
 21
54.8831
 31
0.0
  0
LINE
  8
0
 62
     0
 10
326.47
 20
54.8831
 30
0.0
 11
340.469
 21
54.8831
 31
0.0
  0
LINE
  8
0
 62
     0
 10
340.469
 20
54.8831
 30
0.0
 11
340.469
 21
40.8838
 31
0.0
  0
LINE
  8
0
 62
     0
 10
340.469
 20
40.8838
 30
0.0
 11
326.47
 21
40.8838
 31
0.0
  0
LINE
  8
0
 62
     0
 10
326.47
 20
40.8838
 30
0.0
 11
326.47
 21
54.8831
 31
0.0
  0
LINE
  8
0
 62
     0
 10
345.52
 20
54.8831
 30
0.0
 11
359.519
 21
54.8831
 31
0.0
  0
LINE
  8
0
 62
     0
 10
359.519
 20
54.8831
 30
0.0
 11
359.519
 21
40.8838
 31
0.0
  0
LINE
  8
0
 62
     0
 10
359.519
 20
40.8838
 30
0.0
 11
345.52
 21
40.8838
 31
0.0
  0
LINE
  8
0
 62
     0
 10
345.52
 20
40.8838
 30
0.0
 11
345.52
 21
54.8831
 31
0.0
  0
LINE
  8
0
 62
     0
 10
7.38216
 20
73.9331
 30
0.0
 11
21.3817
 21
73.9331
 31
0.0
  0
LINE
  8
0
 62
     0
 10
21.3817
 20
73.9331
 30
0.0
 11
21.3817
 21
59.9338
 31
0.0
  0
LINE
  8
0
 62
     0
 10
21.3817
 20
59.9338
 30
0.0
 11
7.38216
 21
59.9338
 31
0.0
  0
LINE
  8
0
 62
     0
 10
7.38216
 20
59.9338
 30
0.0
 11
7.38216
 21
73.9331
 31
0.0
  0
LINE
  8
0
 62
     0
 10
31.1947
 20
73.9331
 30
0.0
 11
45.194
 21
73.9331
 31
0.0
  0
LINE
  8
0
 62
     0
 10
45.194
 20
73.9331
 30
0.0
 11
45.194
 21
59.9338
 31
0.0
  0
LINE
  8
0
 62
     0
 10
45.194
 20
59.9338
 30
0.0
 11
31.1947
 21
59.9338
 31
0.0
  0
LINE
  8
0
 62
     0
 10
31.1947
 20
59.9338
 30
0.0
 11
31.1947
 21
73.9331
 31
0.0
  0
LINE
  8
0
 62
     0
 10
50.2447
 20
73.9331
 30
0.0
 11
64.244
 21
73.9331
 31
0.0
  0
LINE
  8
0
 62
     0
 10
64.244
 20
73.9331
 30
0.0
 11
64.244
 21
59.9338
 31
0.0
  0
LINE
  8
0
 62
     0
 10
64.244
 20
59.9338
 30
0.0
 11
50.2447
 21
59.9338
 31
0.0
  0
LINE
  8
0
 62
     0
 10
50.2447
 20
59.9338
 30
0.0
 11
50.2447
 21
73.9331
 31
0.0
  0
LINE
  8
0
 62
     0
 10
69.2947
 20
73.9331
 30
0.0
 11
83.294
 21
73.9331
 31
0.0
  0
LINE
  8
0
 62
     0
 10
83.294
 20
73.9331
 30
0.0
 11
83.294
 21
59.9338
 31
0.0
  0
LINE
  8
0
 62
     0
 10
83.294
 20
59.9338
 30
0.0
 11
69.2947
 21
59.9338
 31
0.0
  0
LINE
  8
0
 62
     0
 10
69.2947
 20
59.9338
 30
0.0
 11
69.2947
 21
73.9331
 31
0.0
  0
LINE
  8
0
 62
     0
 10
88.3447
 20
73.9331
 30
0.0
 11
102.344
 21
73.9331
 31
0.0
  0
LINE
  8
0
 62
     0
 10
102.344
 20
73.9331
 30
0.0
 11
102.344
 21
59.9338
 31
0.0
  0
LINE
  8
0
 62
     0
 10
102.344
 20
59.9338
 30
0.0
 11
88.3447
 21
59.9338
 31
0.0
  0
LINE
  8
0
 62
     0
 10
88.3447
 20
59.9338
 30
0.0
 11
88.3447
 21
73.9331
 31
0.0
  0
LINE
  8
0
 62
     0
 10
107.395
 20
73.9331
 30
0.0
 11
121.394
 21
73.9331
 31
0.0
  0
LINE
  8
0
 62
     0
 10
121.394
 20
73.9331
 30
0.0
 11
121.394
 21
59.9338
 31
0.0
  0
LINE
  8
0
 62
     0
 10
121.394
 20
59.9338
 30
0.0
 11
107.395
 21
59.9338
 31
0.0
  0
LINE
  8
0
 62
     0
 10
107.395
 20
59.9338
 30
0.0
 11
107.395
 21
73.9331
 31
0.0
  0
LINE
  8
0
 62
     0
 10
126.445
 20
73.9331
 30
0.0
 11
140.444
 21
73.9331
 31
0.0
  0
LINE
  8
0
 62
     0
 10
140.444
 20
73.9331
 30
0.0
 11
140.444
 21
59.9338
 31
0.0
  0
LINE
  8
0
 62
     0
 10
140.444
 20
59.9338
 30
0.0
 11
126.445
 21
59.9338
 31
0.0
  0
LINE
  8
0
 62
     0
 10
126.445
 20
59.9338
 30
0.0
 11
126.445
 21
73.9331
 31
0.0
  0
LINE
  8
0
 62
     0
 10
145.495
 20
73.9331
 30
0.0
 11
159.494
 21
73.9331
 31
0.0
  0
LINE
  8
0
 62
     0
 10
159.494
 20
73.9331
 30
0.0
 11
159.494
 21
59.9338
 31
0.0
  0
LINE
  8
0
 62
     0
 10
159.494
 20
59.9338
 30
0.0
 11
145.495
 21
59.9338
 31
0.0
  0
LINE
  8
0
 62
     0
 10
145.495
 20
59.9338
 30
0.0
 11
145.495
 21
73.9331
 31
0.0
  0
LINE
  8
0
 62
     0
 10
164.545
 20
73.9331
 30
0.0
 11
178.544
 21
73.9331
 31
0.0
  0
LINE
  8
0
 62
     0
 10
178.544
 20
73.9331
 30
0.0
 11
178.544
 21
59.9338
 31
0.0
  0
LINE
  8
0
 62
     0
 10
178.544
 20
59.9338
 30
0.0
 11
164.545
 21
59.9338
 31
0.0
  0
LINE
  8
0
 62
     0
 10
164.545
 20
59.9338
 30
0.0
 11
164.545
 21
73.9331
 31
0.0
  0
LINE
  8
0
 62
     0
 10
183.595
 20
73.9331
 30
0.0
 11
197.594
 21
73.9331
 31
0.0
  0
LINE
  8
0
 62
     0
 10
197.594
 20
73.9331
 30
0.0
 11
197.594
 21
59.9338
 31
0.0
  0
LINE
  8
0
 62
     0
 10
197.594
 20
59.9338
 30
0.0
 11
183.595
 21
59.9338
 31
0.0
  0
LINE
  8
0
 62
     0
 10
183.595
 20
59.9338
 30
0.0
 11
183.595
 21
73.9331
 31
0.0
  0
LINE
  8
0
 62
     0
 10
202.645
 20
73.9331
 30
0.0
 11
216.644
 21
73.9331
 31
0.0
  0
LINE
  8
0
 62
     0
 10
216.644
 20
73.9331
 30
0.0
 11
216.644
 21
59.9338
 31
0.0
  0
LINE
  8
0
 62
     0
 10
216.644
 20
59.9338
 30
0.0
 11
202.645
 21
59.9338
 31
0.0
  0
LINE
  8
0
 62
     0
 10
202.645
 20
59.9338
 30
0.0
 11
202.645
 21
73.9331
 31
0.0
  0
LINE
  8
0
 62
     0
 10
221.695
 20
73.9331
 30
0.0
 11
235.694
 21
73.9331
 31
0.0
  0
LINE
  8
0
 62
     0
 10
235.694
 20
73.9331
 30
0.0
 11
235.694
 21
59.9338
 31
0.0
  0
LINE
  8
0
 62
     0
 10
235.694
 20
59.9338
 30
0.0
 11
221.695
 21
59.9338
 31
0.0
  0
LINE
  8
0
 62
     0
 10
221.695
 20
59.9338
 30
0.0
 11
221.695
 21
73.9331
 31
0.0
  0
LINE
  8
0
 62
     0
 10
240.745
 20
73.9331
 30
0.0
 11
254.744
 21
73.9331
 31
0.0
  0
LINE
  8
0
 62
     0
 10
254.744
 20
73.9331
 30
0.0
 11
254.744
 21
59.9338
 31
0.0
  0
LINE
  8
0
 62
     0
 10
254.744
 20
59.9338
 30
0.0
 11
240.745
 21
59.9338
 31
0.0
  0
LINE
  8
0
 62
     0
 10
240.745
 20
59.9338
 30
0.0
 11
240.745
 21
73.9331
 31
0.0
  0
LINE
  8
0
 62
     0
 10
264.557
 20
73.9331
 30
0.0
 11
278.557
 21
73.9331
 31
0.0
  0
LINE
  8
0
 62
     0
 10
278.557
 20
73.9331
 30
0.0
 11
278.557
 21
59.9338
 31
0.0
  0
LINE
  8
0
 62
     0
 10
278.557
 20
59.9338
 30
0.0
 11
264.557
 21
59.9338
 31
0.0
  0
LINE
  8
0
 62
     0
 10
264.557
 20
59.9338
 30
0.0
 11
264.557
 21
73.9331
 31
0.0
  0
LINE
  8
0
 62
     0
 10
288.37
 20
73.9331
 30
0.0
 11
302.369
 21
73.9331
 31
0.0
  0
LINE
  8
0
 62
     0
 10
302.369
 20
73.9331
 30
0.0
 11
302.369
 21
59.9338
 31
0.0
  0
LINE
  8
0
 62
     0
 10
302.369
 20
59.9338
 30
0.0
 11
288.37
 21
59.9338
 31
0.0
  0
LINE
  8
0
 62
     0
 10
288.37
 20
59.9338
 30
0.0
 11
288.37
 21
73.9331
 31
0.0
  0
LINE
  8
0
 62
     0
 10
307.42
 20
73.9331
 30
0.0
 11
321.419
 21
73.9331
 31
0.0
  0
LINE
  8
0
 62
     0
 10
321.419
 20
73.9331
 30
0.0
 11
321.419
 21
59.9338
 31
0.0
  0
LINE
  8
0
 62
     0
 10
321.419
 20
59.9338
 30
0.0
 11
307.42
 21
59.9338
 31
0.0
  0
LINE
  8
0
 62
     0
 10
307.42
 20
59.9338
 30
0.0
 11
307.42
 21
73.9331
 31
0.0
  0
LINE
  8
0
 62
     0
 10
326.47
 20
73.9331
 30
0.0
 11
340.469
 21
73.9331
 31
0.0
  0
LINE
  8
0
 62
     0
 10
340.469
 20
73.9331
 30
0.0
 11
340.469
 21
59.9338
 31
0.0
  0
LINE
  8
0
 62
     0
 10
340.469
 20
59.9338
 30
0.0
 11
326.47
 21
59.9338
 31
0.0
  0
LINE
  8
0
 62
     0
 10
326.47
 20
59.9338
 30
0.0
 11
326.47
 21
73.9331
 31
0.0
  0
LINE
  8
0
 62
     0
 10
345.52
 20
73.9331
 30
0.0
 11
359.519
 21
73.9331
 31
0.0
  0
LINE
  8
0
 62
     0
 10
359.519
 20
73.9331
 30
0.0
 11
359.519
 21
59.9338
 31
0.0
  0
LINE
  8
0
 62
     0
 10
359.519
 20
59.9338
 30
0.0
 11
345.52
 21
59.9338
 31
0.0
  0
LINE
  8
0
 62
     0
 10
345.52
 20
59.9338
 30
0.0
 11
345.52
 21
73.9331
 31
0.0
  0
LINE
  8
0
 62
     0
 10
259.795
 20
92.9831
 30
0.0
 11
259.795
 21
88.2826
 31
0.0
  0
LINE
  8
0
 62
     0
 10
259.795
 20
88.2826
 30
0.0
 11
258.269
 21
88.2826
 31
0.0
  0
LINE
  8
0
 62
     0
 10
258.269
 20
88.2826
 30
0.0
 11
258.269
 21
91.5127
 31
0.0
  0
LINE
  8
0
 62
     0
 10
258.269
 20
91.5127
 30
0.0
 11
251.52
 21
91.5127
 31
0.0
  0
LINE
  8
0
 62
     0
 10
251.52
 20
91.5127
 30
0.0
 11
251.52
 21
88.2826
 31
0.0
  0
LINE
  8
0
 62
     0
 10
251.52
 20
88.2826
 30
0.0
 11
250.694
 21
88.2826
 31
0.0
  0
LINE
  8
0
 62
     0
 10
250.694
 20
88.2826
 30
0.0
 11
250.694
 21
85.4837
 31
0.0
  0
LINE
  8
0
 62
     0
 10
250.694
 20
85.4837
 30
0.0
 11
251.52
 21
85.4837
 31
0.0
  0
LINE
  8
0
 62
     0
 10
251.52
 20
85.4837
 30
0.0
 11
251.52
 21
79.2138
 31
0.0
  0
LINE
  8
0
 62
     0
 10
251.52
 20
79.2138
 30
0.0
 11
253.243
 21
79.2138
 31
0.0
  0
LINE
  8
0
 62
     0
 10
253.243
 20
79.2138
 30
0.0
 11
253.243
 21
78.0136
 31
0.0
  0
LINE
  8
0
 62
     0
 10
253.243
 20
78.0136
 30
0.0
 11
256.544
 21
78.0136
 31
0.0
  0
LINE
  8
0
 62
     0
 10
256.544
 20
78.0136
 30
0.0
 11
256.544
 21
79.2138
 31
0.0
  0
LINE
  8
0
 62
     0
 10
256.544
 20
79.2138
 30
0.0
 11
258.269
 21
79.2138
 31
0.0
  0
LINE
  8
0
 62
     0
 10
258.269
 20
79.2138
 30
0.0
 11
258.269
 21
83.6828
 31
0.0
  0
LINE
  8
0
 62
     0
 10
258.269
 20
83.6828
 30
0.0
 11
259.795
 21
83.6828
 31
0.0
  0
LINE
  8
0
 62
     0
 10
259.795
 20
83.6828
 30
0.0
 11
259.795
 21
78.9838
 31
0.0
  0
LINE
  8
0
 62
     0
 10
259.795
 20
78.9838
 30
0.0
 11
273.794
 21
78.9838
 31
0.0
  0
LINE
  8
0
 62
     0
 10
273.794
 20
78.9838
 30
0.0
 11
273.794
 21
83.6828
 31
0.0
  0
LINE
  8
0
 62
     0
 10
273.794
 20
83.6828
 30
0.0
 11
275.32
 21
83.6828
 31
0.0
  0
LINE
  8
0
 62
     0
 10
275.32
 20
83.6828
 30
0.0
 11
275.32
 21
79.2138
 31
0.0
  0
LINE
  8
0
 62
     0
 10
275.32
 20
79.2138
 30
0.0
 11
277.045
 21
79.2138
 31
0.0
  0
LINE
  8
0
 62
     0
 10
277.045
 20
79.2138
 30
0.0
 11
277.045
 21
78.0136
 31
0.0
  0
LINE
  8
0
 62
     0
 10
277.045
 20
78.0136
 30
0.0
 11
280.344
 21
78.0136
 31
0.0
  0
LINE
  8
0
 62
     0
 10
280.344
 20
78.0136
 30
0.0
 11
280.344
 21
79.2138
 31
0.0
  0
LINE
  8
0
 62
     0
 10
280.344
 20
79.2138
 30
0.0
 11
282.069
 21
79.2138
 31
0.0
  0
LINE
  8
0
 62
     0
 10
282.069
 20
79.2138
 30
0.0
 11
282.069
 21
85.4837
 31
0.0
  0
LINE
  8
0
 62
     0
 10
282.069
 20
85.4837
 30
0.0
 11
282.895
 21
85.4837
 31
0.0
  0
LINE
  8
0
 62
     0
 10
282.895
 20
85.4837
 30
0.0
 11
282.895
 21
88.2826
 31
0.0
  0
LINE
  8
0
 62
     0
 10
282.895
 20
88.2826
 30
0.0
 11
282.069
 21
88.2826
 31
0.0
  0
LINE
  8
0
 62
     0
 10
282.069
 20
88.2826
 30
0.0
 11
282.069
 21
91.5127
 31
0.0
  0
LINE
  8
0
 62
     0
 10
282.069
 20
91.5127
 30
0.0
 11
275.32
 21
91.5127
 31
0.0
  0
LINE
  8
0
 62
     0
 10
275.32
 20
91.5127
 30
0.0
 11
275.32
 21
88.2826
 31
0.0
  0
LINE
  8
0
 62
     0
 10
275.32
 20
88.2826
 30
0.0
 11
273.794
 21
88.2826
 31
0.0
  0
LINE
  8
0
 62
     0
 10
273.794
 20
88.2826
 30
0.0
 11
273.794
 21
92.9831
 31
0.0
  0
LINE
  8
0
 62
     0
 10
273.794
 20
92.9831
 30
0.0
 11
259.795
 21
92.9831
 31
0.0
  0
LINE
  8
0
 62
     0
 10
297.895
 20
92.9831
 30
0.0
 11
297.895
 21
88.2826
 31
0.0
  0
LINE
  8
0
 62
     0
 10
297.895
 20
88.2826
 30
0.0
 11
296.369
 21
88.2826
 31
0.0
  0
LINE
  8
0
 62
     0
 10
296.369
 20
88.2826
 30
0.0
 11
296.369
 21
91.5127
 31
0.0
  0
LINE
  8
0
 62
     0
 10
296.369
 20
91.5127
 30
0.0
 11
289.62
 21
91.5127
 31
0.0
  0
LINE
  8
0
 62
     0
 10
289.62
 20
91.5127
 30
0.0
 11
289.62
 21
88.2826
 31
0.0
  0
LINE
  8
0
 62
     0
 10
289.62
 20
88.2826
 30
0.0
 11
288.794
 21
88.2826
 31
0.0
  0
LINE
  8
0
 62
     0
 10
288.794
 20
88.2826
 30
0.0
 11
288.794
 21
85.4837
 31
0.0
  0
LINE
  8
0
 62
     0
 10
288.794
 20
85.4837
 30
0.0
 11
289.62
 21
85.4837
 31
0.0
  0
LINE
  8
0
 62
     0
 10
289.62
 20
85.4837
 30
0.0
 11
289.62
 21
79.2138
 31
0.0
  0
LINE
  8
0
 62
     0
 10
289.62
 20
79.2138
 30
0.0
 11
291.345
 21
79.2138
 31
0.0
  0
LINE
  8
0
 62
     0
 10
291.345
 20
79.2138
 30
0.0
 11
291.345
 21
78.0136
 31
0.0
  0
LINE
  8
0
 62
     0
 10
291.345
 20
78.0136
 30
0.0
 11
294.644
 21
78.0136
 31
0.0
  0
LINE
  8
0
 62
     0
 10
294.644
 20
78.0136
 30
0.0
 11
294.644
 21
79.2138
 31
0.0
  0
LINE
  8
0
 62
     0
 10
294.644
 20
79.2138
 30
0.0
 11
296.369
 21
79.2138
 31
0.0
  0
LINE
  8
0
 62
     0
 10
296.369
 20
79.2138
 30
0.0
 11
296.369
 21
83.6828
 31
0.0
  0
LINE
  8
0
 62
     0
 10
296.369
 20
83.6828
 30
0.0
 11
297.895
 21
83.6828
 31
0.0
  0
LINE
  8
0
 62
     0
 10
297.895
 20
83.6828
 30
0.0
 11
297.895
 21
78.9838
 31
0.0
  0
LINE
  8
0
 62
     0
 10
297.895
 20
78.9838
 30
0.0
 11
311.894
 21
78.9838
 31
0.0
  0
LINE
  8
0
 62
     0
 10
311.894
 20
78.9838
 30
0.0
 11
311.894
 21
83.6828
 31
0.0
  0
LINE
  8
0
 62
     0
 10
311.894
 20
83.6828
 30
0.0
 11
313.42
 21
83.6828
 31
0.0
  0
LINE
  8
0
 62
     0
 10
313.42
 20
83.6828
 30
0.0
 11
313.42
 21
79.2138
 31
0.0
  0
LINE
  8
0
 62
     0
 10
313.42
 20
79.2138
 30
0.0
 11
315.145
 21
79.2138
 31
0.0
  0
LINE
  8
0
 62
     0
 10
315.145
 20
79.2138
 30
0.0
 11
315.145
 21
78.0136
 31
0.0
  0
LINE
  8
0
 62
     0
 10
315.145
 20
78.0136
 30
0.0
 11
318.444
 21
78.0136
 31
0.0
  0
LINE
  8
0
 62
     0
 10
318.444
 20
78.0136
 30
0.0
 11
318.444
 21
79.2138
 31
0.0
  0
LINE
  8
0
 62
     0
 10
318.444
 20
79.2138
 30
0.0
 11
320.169
 21
79.2138
 31
0.0
  0
LINE
  8
0
 62
     0
 10
320.169
 20
79.2138
 30
0.0
 11
320.169
 21
85.4837
 31
0.0
  0
LINE
  8
0
 62
     0
 10
320.169
 20
85.4837
 30
0.0
 11
320.995
 21
85.4837
 31
0.0
  0
LINE
  8
0
 62
     0
 10
320.995
 20
85.4837
 30
0.0
 11
320.995
 21
88.2826
 31
0.0
  0
LINE
  8
0
 62
     0
 10
320.995
 20
88.2826
 30
0.0
 11
320.169
 21
88.2826
 31
0.0
  0
LINE
  8
0
 62
     0
 10
320.169
 20
88.2826
 30
0.0
 11
320.169
 21
91.5127
 31
0.0
  0
LINE
  8
0
 62
     0
 10
320.169
 20
91.5127
 30
0.0
 11
313.42
 21
91.5127
 31
0.0
  0
LINE
  8
0
 62
     0
 10
313.42
 20
91.5127
 30
0.0
 11
313.42
 21
88.2826
 31
0.0
  0
LINE
  8
0
 62
     0
 10
313.42
 20
88.2826
 30
0.0
 11
311.894
 21
88.2826
 31
0.0
  0
LINE
  8
0
 62
     0
 10
311.894
 20
88.2826
 30
0.0
 11
311.894
 21
92.9831
 31
0.0
  0
LINE
  8
0
 62
     0
 10
311.894
 20
92.9831
 30
0.0
 11
297.895
 21
92.9831
 31
0.0
  0
LINE
  8
0
 62
     0
 10
335.995
 20
92.9831
 30
0.0
 11
335.995
 21
88.2826
 31
0.0
  0
LINE
  8
0
 62
     0
 10
335.995
 20
88.2826
 30
0.0
 11
334.469
 21
88.2826
 31
0.0
  0
LINE
  8
0
 62
     0
 10
334.469
 20
88.2826
 30
0.0
 11
334.469
 21
91.5127
 31
0.0
  0
LINE
  8
0
 62
     0
 10
334.469
 20
91.5127
 30
0.0
 11
327.72
 21
91.5127
 31
0.0
  0
LINE
  8
0
 62
     0
 10
327.72
 20
91.5127
 30
0.0
 11
327.72
 21
88.2826
 31
0.0
  0
LINE
  8
0
 62
     0
 10
327.72
 20
88.2826
 30
0.0
 11
326.894
 21
88.2826
 31
0.0
  0
LINE
  8
0
 62
     0
 10
326.894
 20
88.2826
 30
0.0
 11
326.894
 21
85.4837
 31
0.0
  0
LINE
  8
0
 62
     0
 10
326.894
 20
85.4837
 30
0.0
 11
327.72
 21
85.4837
 31
0.0
  0
LINE
  8
0
 62
     0
 10
327.72
 20
85.4837
 30
0.0
 11
327.72
 21
79.2138
 31
0.0
  0
LINE
  8
0
 62
     0
 10
327.72
 20
79.2138
 30
0.0
 11
329.445
 21
79.2138
 31
0.0
  0
LINE
  8
0
 62
     0
 10
329.445
 20
79.2138
 30
0.0
 11
329.445
 21
78.0136
 31
0.0
  0
LINE
  8
0
 62
     0
 10
329.445
 20
78.0136
 30
0.0
 11
332.744
 21
78.0136
 31
0.0
  0
LINE
  8
0
 62
     0
 10
332.744
 20
78.0136
 30
0.0
 11
332.744
 21
79.2138
 31
0.0
  0
LINE
  8
0
 62
     0
 10
332.744
 20
79.2138
 30
0.0
 11
334.469
 21
79.2138
 31
0.0
  0
LINE
  8
0
 62
     0
 10
334.469
 20
79.2138
 30
0.0
 11
334.469
 21
83.6828
 31
0.0
  0
LINE
  8
0
 62
     0
 10
334.469
 20
83.6828
 30
0.0
 11
335.995
 21
83.6828
 31
0.0
  0
LINE
  8
0
 62
     0
 10
335.995
 20
83.6828
 30
0.0
 11
335.995
 21
78.9838
 31
0.0
  0
LINE
  8
0
 62
     0
 10
335.995
 20
78.9838
 30
0.0
 11
349.994
 21
78.9838
 31
0.0
  0
LINE
  8
0
 62
     0
 10
349.994
 20
78.9838
 30
0.0
 11
349.994
 21
83.6828
 31
0.0
  0
LINE
  8
0
 62
     0
 10
349.994
 20
83.6828
 30
0.0
 11
351.52
 21
83.6828
 31
0.0
  0
LINE
  8
0
 62
     0
 10
351.52
 20
83.6828
 30
0.0
 11
351.52
 21
79.2138
 31
0.0
  0
LINE
  8
0
 62
     0
 10
351.52
 20
79.2138
 30
0.0
 11
353.243
 21
79.2138
 31
0.0
  0
LINE
  8
0
 62
     0
 10
353.243
 20
79.2138
 30
0.0
 11
353.243
 21
78.0136
 31
0.0
  0
LINE
  8
0
 62
     0
 10
353.243
 20
78.0136
 30
0.0
 11
356.545
 21
78.0136
 31
0.0
  0
LINE
  8
0
 62
     0
 10
356.545
 20
78.0136
 30
0.0
 11
356.545
 21
79.2138
 31
0.0
  0
LINE
  8
0
 62
     0
 10
356.545
 20
79.2138
 30
0.0
 11
358.271
 21
79.2138
 31
0.0
  0
LINE
  8
0
 62
     0
 10
358.271
 20
79.2138
 30
0.0
 11
358.271
 21
85.4837
 31
0.0
  0
LINE
  8
0
 62
     0
 10
358.271
 20
85.4837
 30
0.0
 11
359.096
 21
85.4837
 31
0.0
  0
LINE
  8
0
 62
     0
 10
359.096
 20
85.4837
 30
0.0
 11
359.096
 21
88.2826
 31
0.0
  0
LINE
  8
0
 62
     0
 10
359.096
 20
88.2826
 30
0.0
 11
358.271
 21
88.2826
 31
0.0
  0
LINE
  8
0
 62
     0
 10
358.271
 20
88.2826
 30
0.0
 11
358.271
 21
91.5127
 31
0.0
  0
LINE
  8
0
 62
     0
 10
358.271
 20
91.5127
 30
0.0
 11
351.52
 21
91.5127
 31
0.0
  0
LINE
  8
0
 62
     0
 10
351.52
 20
91.5127
 30
0.0
 11
351.52
 21
88.2826
 31
0.0
  0
LINE
  8
0
 62
     0
 10
351.52
 20
88.2826
 30
0.0
 11
349.994
 21
88.2826
 31
0.0
  0
LINE
  8
0
 62
     0
 10
349.994
 20
88.2826
 30
0.0
 11
349.994
 21
92.9831
 31
0.0
  0
LINE
  8
0
 62
     0
 10
349.994
 20
92.9831
 30
0.0
 11
335.995
 21
92.9831
 31
0.0
  0
LINE
  8
0
 62
     0
 10
2.61965
 20
92.9831
 30
0.0
 11
16.6192
 21
92.9831
 31
0.0
  0
LINE
  8
0
 62
     0
 10
16.6192
 20
92.9831
 30
0.0
 11
16.6192
 21
78.9838
 31
0.0
  0
LINE
  8
0
 62
     0
 10
16.6192
 20
78.9838
 30
0.0
 11
2.61965
 21
78.9838
 31
0.0
  0
LINE
  8
0
 62
     0
 10
2.61965
 20
78.9838
 30
0.0
 11
2.61965
 21
92.9831
 31
0.0
  0
LINE
  8
0
 62
     0
 10
21.6697
 20
92.9831
 30
0.0
 11
35.669
 21
92.9831
 31
0.0
  0
LINE
  8
0
 62
     0
 10
35.669
 20
92.9831
 30
0.0
 11
35.669
 21
78.9838
 31
0.0
  0
LINE
  8
0
 62
     0
 10
35.669
 20
78.9838
 30
0.0
 11
21.6697
 21
78.9838
 31
0.0
  0
LINE
  8
0
 62
     0
 10
21.6697
 20
78.9838
 30
0.0
 11
21.6697
 21
92.9831
 31
0.0
  0
LINE
  8
0
 62
     0
 10
40.7197
 20
92.9831
 30
0.0
 11
54.719
 21
92.9831
 31
0.0
  0
LINE
  8
0
 62
     0
 10
54.719
 20
92.9831
 30
0.0
 11
54.719
 21
78.9838
 31
0.0
  0
LINE
  8
0
 62
     0
 10
54.719
 20
78.9838
 30
0.0
 11
40.7197
 21
78.9838
 31
0.0
  0
LINE
  8
0
 62
     0
 10
40.7197
 20
78.9838
 30
0.0
 11
40.7197
 21
92.9831
 31
0.0
  0
LINE
  8
0
 62
     0
 10
59.7697
 20
92.9831
 30
0.0
 11
73.769
 21
92.9831
 31
0.0
  0
LINE
  8
0
 62
     0
 10
73.769
 20
92.9831
 30
0.0
 11
73.769
 21
78.9838
 31
0.0
  0
LINE
  8
0
 62
     0
 10
73.769
 20
78.9838
 30
0.0
 11
59.7697
 21
78.9838
 31
0.0
  0
LINE
  8
0
 62
     0
 10
59.7697
 20
78.9838
 30
0.0
 11
59.7697
 21
92.9831
 31
0.0
  0
LINE
  8
0
 62
     0
 10
78.8197
 20
92.9831
 30
0.0
 11
92.819
 21
92.9831
 31
0.0
  0
LINE
  8
0
 62
     0
 10
92.819
 20
92.9831
 30
0.0
 11
92.819
 21
78.9838
 31
0.0
  0
LINE
  8
0
 62
     0
 10
92.819
 20
78.9838
 30
0.0
 11
78.8197
 21
78.9838
 31
0.0
  0
LINE
  8
0
 62
     0
 10
78.8197
 20
78.9838
 30
0.0
 11
78.8197
 21
92.9831
 31
0.0
  0
LINE
  8
0
 62
     0
 10
97.8683
 20
92.9831
 30
0.0
 11
111.869
 21
92.9831
 31
0.0
  0
LINE
  8
0
 62
     0
 10
111.869
 20
92.9831
 30
0.0
 11
111.869
 21
78.9838
 31
0.0
  0
LINE
  8
0
 62
     0
 10
111.869
 20
78.9838
 30
0.0
 11
97.8683
 21
78.9838
 31
0.0
  0
LINE
  8
0
 62
     0
 10
97.8683
 20
78.9838
 30
0.0
 11
97.8683
 21
92.9831
 31
0.0
  0
LINE
  8
0
 62
     0
 10
116.918
 20
92.9831
 30
0.0
 11
130.919
 21
92.9831
 31
0.0
  0
LINE
  8
0
 62
     0
 10
130.919
 20
92.9831
 30
0.0
 11
130.919
 21
78.9838
 31
0.0
  0
LINE
  8
0
 62
     0
 10
130.919
 20
78.9838
 30
0.0
 11
116.918
 21
78.9838
 31
0.0
  0
LINE
  8
0
 62
     0
 10
116.918
 20
78.9838
 30
0.0
 11
116.918
 21
92.9831
 31
0.0
  0
LINE
  8
0
 62
     0
 10
135.97
 20
92.9831
 30
0.0
 11
149.969
 21
92.9831
 31
0.0
  0
LINE
  8
0
 62
     0
 10
149.969
 20
92.9831
 30
0.0
 11
149.969
 21
78.9838
 31
0.0
  0
LINE
  8
0
 62
     0
 10
149.969
 20
78.9838
 30
0.0
 11
135.97
 21
78.9838
 31
0.0
  0
LINE
  8
0
 62
     0
 10
135.97
 20
78.9838
 30
0.0
 11
135.97
 21
92.9831
 31
0.0
  0
LINE
  8
0
 62
     0
 10
155.02
 20
92.9831
 30
0.0
 11
169.019
 21
92.9831
 31
0.0
  0
LINE
  8
0
 62
     0
 10
169.019
 20
92.9831
 30
0.0
 11
169.019
 21
78.9838
 31
0.0
  0
LINE
  8
0
 62
     0
 10
169.019
 20
78.9838
 30
0.0
 11
155.02
 21
78.9838
 31
0.0
  0
LINE
  8
0
 62
     0
 10
155.02
 20
78.9838
 30
0.0
 11
155.02
 21
92.9831
 31
0.0
  0
LINE
  8
0
 62
     0
 10
174.07
 20
92.9831
 30
0.0
 11
188.069
 21
92.9831
 31
0.0
  0
LINE
  8
0
 62
     0
 10
188.069
 20
92.9831
 30
0.0
 11
188.069
 21
78.9838
 31
0.0
  0
LINE
  8
0
 62
     0
 10
188.069
 20
78.9838
 30
0.0
 11
174.07
 21
78.9838
 31
0.0
  0
LINE
  8
0
 62
     0
 10
174.07
 20
78.9838
 30
0.0
 11
174.07
 21
92.9831
 31
0.0
  0
LINE
  8
0
 62
     0
 10
193.12
 20
92.9831
 30
0.0
 11
207.119
 21
92.9831
 31
0.0
  0
LINE
  8
0
 62
     0
 10
207.119
 20
92.9831
 30
0.0
 11
207.119
 21
78.9838
 31
0.0
  0
LINE
  8
0
 62
     0
 10
207.119
 20
78.9838
 30
0.0
 11
193.12
 21
78.9838
 31
0.0
  0
LINE
  8
0
 62
     0
 10
193.12
 20
78.9838
 30
0.0
 11
193.12
 21
92.9831
 31
0.0
  0
LINE
  8
0
 62
     0
 10
212.17
 20
92.9831
 30
0.0
 11
226.169
 21
92.9831
 31
0.0
  0
LINE
  8
0
 62
     0
 10
226.169
 20
92.9831
 30
0.0
 11
226.169
 21
78.9838
 31
0.0
  0
LINE
  8
0
 62
     0
 10
226.169
 20
78.9838
 30
0.0
 11
212.17
 21
78.9838
 31
0.0
  0
LINE
  8
0
 62
     0
 10
212.17
 20
78.9838
 30
0.0
 11
212.17
 21
92.9831
 31
0.0
  0
LINE
  8
0
 62
     0
 10
231.22
 20
92.9831
 30
0.0
 11
245.219
 21
92.9831
 31
0.0
  0
LINE
  8
0
 62
     0
 10
245.219
 20
92.9831
 30
0.0
 11
245.219
 21
78.9838
 31
0.0
  0
LINE
  8
0
 62
     0
 10
245.219
 20
78.9838
 30
0.0
 11
231.22
 21
78.9838
 31
0.0
  0
LINE
  8
0
 62
     0
 10
231.22
 20
78.9838
 30
0.0
 11
231.22
 21
92.9831
 31
0.0
  0
LINE
  8
0
 62
     0
 10
2.61965
 20
121.558
 30
0.0
 11
16.6192
 21
121.558
 31
0.0
  0
LINE
  8
0
 62
     0
 10
16.6192
 20
121.558
 30
0.0
 11
16.6192
 21
107.559
 31
0.0
  0
LINE
  8
0
 62
     0
 10
16.6192
 20
107.559
 30
0.0
 11
2.61965
 21
107.559
 31
0.0
  0
LINE
  8
0
 62
     0
 10
2.61965
 20
107.559
 30
0.0
 11
2.61965
 21
121.558
 31
0.0
  0
LINE
  8
0
 62
     0
 10
21.6697
 20
121.558
 30
0.0
 11
35.669
 21
121.558
 31
0.0
  0
LINE
  8
0
 62
     0
 10
35.669
 20
121.558
 30
0.0
 11
35.669
 21
107.559
 31
0.0
  0
LINE
  8
0
 62
     0
 10
35.669
 20
107.559
 30
0.0
 11
21.6697
 21
107.559
 31
0.0
  0
LINE
  8
0
 62
     0
 10
21.6697
 20
107.559
 30
0.0
 11
21.6697
 21
121.558
 31
0.0
  0
LINE
  8
0
 62
     0
 10
40.7197
 20
121.558
 30
0.0
 11
54.719
 21
121.558
 31
0.0
  0
LINE
  8
0
 62
     0
 10
54.719
 20
121.558
 30
0.0
 11
54.719
 21
107.559
 31
0.0
  0
LINE
  8
0
 62
     0
 10
54.719
 20
107.559
 30
0.0
 11
40.7197
 21
107.559
 31
0.0
  0
LINE
  8
0
 62
     0
 10
40.7197
 20
107.559
 30
0.0
 11
40.7197
 21
121.558
 31
0.0
  0
LINE
  8
0
 62
     0
 10
59.7697
 20
121.558
 30
0.0
 11
73.769
 21
121.558
 31
0.0
  0
LINE
  8
0
 62
     0
 10
73.769
 20
121.558
 30
0.0
 11
73.769
 21
107.559
 31
0.0
  0
LINE
  8
0
 62
     0
 10
73.769
 20
107.559
 30
0.0
 11
59.7697
 21
107.559
 31
0.0
  0
LINE
  8
0
 62
     0
 10
59.7697
 20
107.559
 30
0.0
 11
59.7697
 21
121.558
 31
0.0
  0
LINE
  8
0
 62
     0
 10
78.8197
 20
121.558
 30
0.0
 11
92.819
 21
121.558
 31
0.0
  0
LINE
  8
0
 62
     0
 10
92.819
 20
121.558
 30
0.0
 11
92.819
 21
107.559
 31
0.0
  0
LINE
  8
0
 62
     0
 10
92.819
 20
107.559
 30
0.0
 11
78.8197
 21
107.559
 31
0.0
  0
LINE
  8
0
 62
     0
 10
78.8197
 20
107.559
 30
0.0
 11
78.8197
 21
121.558
 31
0.0
  0
LINE
  8
0
 62
     0
 10
97.8683
 20
121.558
 30
0.0
 11
111.869
 21
121.558
 31
0.0
  0
LINE
  8
0
 62
     0
 10
111.869
 20
121.558
 30
0.0
 11
111.869
 21
107.559
 31
0.0
  0
LINE
  8
0
 62
     0
 10
111.869
 20
107.559
 30
0.0
 11
97.8683
 21
107.559
 31
0.0
  0
LINE
  8
0
 62
     0
 10
97.8683
 20
107.559
 30
0.0
 11
97.8683
 21
121.558
 31
0.0
  0
LINE
  8
0
 62
     0
 10
135.97
 20
121.558
 30
0.0
 11
149.969
 21
121.558
 31
0.0
  0
LINE
  8
0
 62
     0
 10
149.969
 20
121.558
 30
0.0
 11
149.969
 21
107.559
 31
0.0
  0
LINE
  8
0
 62
     0
 10
149.969
 20
107.559
 30
0.0
 11
135.97
 21
107.559
 31
0.0
  0
LINE
  8
0
 62
     0
 10
135.97
 20
107.559
 30
0.0
 11
135.97
 21
121.558
 31
0.0
  0
LINE
  8
0
 62
     0
 10
155.02
 20
121.558
 30
0.0
 11
169.019
 21
121.558
 31
0.0
  0
LINE
  8
0
 62
     0
 10
169.019
 20
121.558
 30
0.0
 11
169.019
 21
107.559
 31
0.0
  0
LINE
  8
0
 62
     0
 10
169.019
 20
107.559
 30
0.0
 11
155.02
 21
107.559
 31
0.0
  0
LINE
  8
0
 62
     0
 10
155.02
 20
107.559
 30
0.0
 11
155.02
 21
121.558
 31
0.0
  0
LINE
  8
0
 62
     0
 10
174.07
 20
121.558
 30
0.0
 11
188.069
 21
121.558
 31
0.0
  0
LINE
  8
0
 62
     0
 10
188.069
 20
121.558
 30
0.0
 11
188.069
 21
107.559
 31
0.0
  0
LINE
  8
0
 62
     0
 10
188.069
 20
107.559
 30
0.0
 11
174.07
 21
107.559
 31
0.0
  0
LINE
  8
0
 62
     0
 10
174.07
 20
107.559
 30
0.0
 11
174.07
 21
121.558
 31
0.0
  0
LINE
  8
0
 62
     0
 10
193.12
 20
121.558
 30
0.0
 11
207.119
 21
121.558
 31
0.0
  0
LINE
  8
0
 62
     0
 10
207.119
 20
121.558
 30
0.0
 11
207.119
 21
107.559
 31
0.0
  0
LINE
  8
0
 62
     0
 10
207.119
 20
107.559
 30
0.0
 11
193.12
 21
107.559
 31
0.0
  0
LINE
  8
0
 62
     0
 10
193.12
 20
107.559
 30
0.0
 11
193.12
 21
121.558
 31
0.0
  0
LINE
  8
0
 62
     0
 10
212.17
 20
121.558
 30
0.0
 11
226.169
 21
121.558
 31
0.0
  0
LINE
  8
0
 62
     0
 10
226.169
 20
121.558
 30
0.0
 11
226.169
 21
107.559
 31
0.0
  0
LINE
  8
0
 62
     0
 10
226.169
 20
107.559
 30
0.0
 11
212.17
 21
107.559
 31
0.0
  0
LINE
  8
0
 62
     0
 10
212.17
 20
107.559
 30
0.0
 11
212.17
 21
121.558
 31
0.0
  0
LINE
  8
0
 62
     0
 10
231.22
 20
121.558
 30
0.0
 11
245.219
 21
121.558
 31
0.0
  0
LINE
  8
0
 62
     0
 10
245.219
 20
121.558
 30
0.0
 11
245.219
 21
107.559
 31
0.0
  0
LINE
  8
0
 62
     0
 10
245.219
 20
107.559
 30
0.0
 11
231.22
 21
107.559
 31
0.0
  0
LINE
  8
0
 62
     0
 10
231.22
 20
107.559
 30
0.0
 11
231.22
 21
121.558
 31
0.0
  0
LINE
  8
0
 62
     0
 10
250.27
 20
121.558
 30
0.0
 11
264.269
 21
121.558
 31
0.0
  0
LINE
  8
0
 62
     0
 10
264.269
 20
121.558
 30
0.0
 11
264.269
 21
107.559
 31
0.0
  0
LINE
  8
0
 62
     0
 10
264.269
 20
107.559
 30
0.0
 11
250.27
 21
107.559
 31
0.0
  0
LINE
  8
0
 62
     0
 10
250.27
 20
107.559
 30
0.0
 11
250.27
 21
121.558
 31
0.0
  0
LINE
  8
0
 62
     0
 10
269.32
 20
121.558
 30
0.0
 11
283.319
 21
121.558
 31
0.0
  0
LINE
  8
0
 62
     0
 10
283.319
 20
121.558
 30
0.0
 11
283.319
 21
107.559
 31
0.0
  0
LINE
  8
0
 62
     0
 10
283.319
 20
107.559
 30
0.0
 11
269.32
 21
107.559
 31
0.0
  0
LINE
  8
0
 62
     0
 10
269.32
 20
107.559
 30
0.0
 11
269.32
 21
121.558
 31
0.0
  0
LINE
  8
0
 62
     0
 10
288.37
 20
121.558
 30
0.0
 11
302.369
 21
121.558
 31
0.0
  0
LINE
  8
0
 62
     0
 10
302.369
 20
121.558
 30
0.0
 11
302.369
 21
107.559
 31
0.0
  0
LINE
  8
0
 62
     0
 10
302.369
 20
107.559
 30
0.0
 11
288.37
 21
107.559
 31
0.0
  0
LINE
  8
0
 62
     0
 10
288.37
 20
107.559
 30
0.0
 11
288.37
 21
121.558
 31
0.0
  0
LINE
  8
0
 62
     0
 10
307.42
 20
121.558
 30
0.0
 11
321.419
 21
121.558
 31
0.0
  0
LINE
  8
0
 62
     0
 10
321.419
 20
121.558
 30
0.0
 11
321.419
 21
107.559
 31
0.0
  0
LINE
  8
0
 62
     0
 10
321.419
 20
107.559
 30
0.0
 11
307.42
 21
107.559
 31
0.0
  0
LINE
  8
0
 62
     0
 10
307.42
 20
107.559
 30
0.0
 11
307.42
 21
121.558
 31
0.0
  0
LINE
  8
0
 62
     0
 10
326.47
 20
121.558
 30
0.0
 11
340.469
 21
121.558
 31
0.0
  0
LINE
  8
0
 62
     0
 10
340.469
 20
121.558
 30
0.0
 11
340.469
 21
107.559
 31
0.0
  0
LINE
  8
0
 62
     0
 10
340.469
 20
107.559
 30
0.0
 11
326.47
 21
107.559
 31
0.0
  0
LINE
  8
0
 62
     0
 10
326.47
 20
107.559
 30
0.0
 11
326.47
 21
121.558
 31
0.0
  0
LINE
  8
0
 62
     0
 10
345.52
 20
121.558
 30
0.0
 11
359.519
 21
121.558
 31
0.0
  0
LINE
  8
0
 62
     0
 10
359.519
 20
121.558
 30
0.0
 11
359.519
 21
107.559
 31
0.0
  0
LINE
  8
0
 62
     0
 10
359.519
 20
107.559
 30
0.0
 11
345.52
 21
107.559
 31
0.0
  0
LINE
  8
0
 62
     0
 10
345.52
 20
107.559
 30
0.0
 11
345.52
 21
121.558
 31
0.0
  0
ENDSEC
  0
EOF
